<?xml version="1.0" encoding="utf-8"?>
<!-- Generator: Adobe Illustrator 26.1.0, SVG Export Plug-In . SVG Version: 6.00 Build 0)  -->
<svg version="1.1" id="Layer_1" xmlns="http://www.w3.org/2000/svg" xmlns:xlink="http://www.w3.org/1999/xlink" x="0px" y="0px"
	 viewBox="0 0 810.37 814.87" style="enable-background:new 0 0 810.37 814.87;" xml:space="preserve">
<style type="text/css">
	.st0{fill:#025992;}
	.st1{fill:#AF1419;}
</style>
<g>
	<path class="st0" d="M477.79,531.55c-0.42-13.22-0.38-26.45-1.06-39.66c-1.15-22.23,5.82-42.1,17.66-60.53
		c8.55-13.32,19.49-24.54,31.07-35.18c19.26-17.7,40.52-32.71,62.71-46.45c2.43-1.51,2.61-1.5,4.58,0.64
		c4.04,4.38,8.06,8.79,12.02,13.25c2.63,2.96,3.45,5.94,1.05,10.28c-11.7,21.13-24.06,41.79-40.16,59.97c-1.14,1.28-2,2.7-2.06,4.5
		c-0.07,2.43,0.92,4.27,3.01,5.49c2.1,1.22,4.24,1.2,6.2-0.23c1.03-0.75,1.92-1.73,2.77-2.7c11.64-13.16,21.55-27.54,30.28-42.77
		c3.74-6.52,7.42-13.08,11.3-19.51c3.08-5.1,3.26-10.22,0.93-15.59c-2.3-5.3-5.58-9.94-9.5-14.13c-2.92-3.12-5.96-6.14-9.07-9.07
		c-1.75-1.65-2.48-3.42-2.19-5.86c2.68-22.51,4.64-45.11,7.78-67.56c2.88-20.52,6.06-41,9.22-61.48c0.51-3.31,1.51-6.56,2.4-9.8
		c0.8-2.93,2.38-5.47,4.49-7.64c6.75-6.95,15.46-10.21,24.46-12.91c0.97-0.29,1.48,0.12,1.67,1.03c0.37,1.77,0.74,3.55,1.05,5.33
		c3.69,21.45,7.32,42.9,10.42,64.45c2.49,17.31,5.21,34.59,7.47,51.92c1.94,14.9,3.38,29.87,5.04,44.8
		c2.01,18.18,3.01,36.42,3.15,54.72c0.04,5.08-0.41,10.1-1.09,15.11c-0.48,3.55-2.24,6.59-4.28,9.48
		c-5.91,8.39-12.48,16.23-19.4,23.8c-23.89,26.15-49.03,51.06-75.08,75.05c-3.6,3.32-5.79,7.18-6.94,11.84
		c-4.08,16.47-8.23,32.92-12.36,49.37c-0.95,3.79-0.97,3.81-4.97,3.81c-22.69,0.01-45.39,0.01-68.08,0.01
		c-0.39,0-0.78-0.05-1.17,0.01c-1.91,0.27-2.43-0.6-2.44-2.43c-0.02-5.96-0.2-11.92-0.3-17.88
		C478.18,553.84,477.99,542.7,477.79,531.55z"/>
	<path class="st0" d="M159.17,174.27c8.66,2.39,16.65,5.17,23.35,10.83c4.66,3.93,7.42,8.9,8.45,14.88
		c4.59,26.55,8.87,53.14,11.95,79.92c2.02,17.51,3.91,35.02,5.88,52.53c0.38,3.34-0.2,5.84-2.9,8.21
		c-5.56,4.88-10.58,10.32-14.59,16.6c-2.03,3.18-3.69,6.5-4.48,10.26c-0.64,3.07-0.3,5.88,1.13,8.65
		c10.95,21.26,23.44,41.52,38.78,59.94c1.49,1.79,2.92,3.64,4.45,5.4c3.04,3.48,6.63,4.1,9.48,1.7c2.43-2.05,2.83-6.03,0.05-9.4
		c-4.7-5.7-9.3-11.48-13.77-17.36c-10.38-13.66-19.03-28.4-27.02-43.55c-1.31-2.48-1.37-4.64,0.12-6.92
		c1.06-1.63,1.97-3.39,3.24-4.84c3.16-3.6,6.43-7.11,9.78-10.54c2.14-2.18,3.23-2.32,5.46-0.9c27.85,17.71,54.51,36.95,77.23,61.14
		c12,12.78,21.73,27.03,27.89,43.58c4.55,12.2,6.37,24.75,6.02,37.74c-0.73,26.82-1.26,53.65-1.89,80.48
		c-0.08,3.37-0.34,6.73-0.35,10.1c-0.01,1.77-0.52,2.73-2.43,2.57c-0.64-0.05-1.3-0.01-1.94-0.01c-22.3,0-44.61,0-66.91,0
		c-4.22,0-4.23-0.01-5.22-4c-4.37-17.45-8.78-34.9-13.08-52.38c-0.59-2.38-1.72-4.21-3.45-5.91
		c-20.84-20.41-41.92-40.58-62.43-61.32c-11.77-11.9-22.8-24.45-33.01-37.74c-4.74-6.17-6.76-12.94-7.06-20.53
		c-0.52-12.85-0.1-25.67,1.01-38.46c1.08-12.39,2.23-24.78,3.57-37.15c1.25-11.59,2.68-23.16,4.22-34.72
		c1.9-14.25,3.82-28.5,6.03-42.71c3.39-21.75,7.03-43.46,10.57-65.19C157.86,181.64,158.51,178.1,159.17,174.27z"/>
	<path class="st1" d="M408.46,292.47c-0.85,2.19,0.03,3.49,0.66,4.68c6.55,12.24,13.65,24.11,23.38,34.19
		c4.26,4.41,8.92,8.3,14.32,11.25c13.6,7.44,27.33,6.82,41.07,0.46c11.2-5.19,20.68-12.79,29.5-21.29c1.68-1.62,3.32-3.28,5.04-4.85
		c0.94-0.86,2-1.91,3.41-1.26c1.38,0.64,1.36,2.03,1.34,3.37c-0.4,31.79-24.62,58.48-56.01,61.71
		c-33.51,3.45-63.09-17.64-70.79-50.5c-2.17-9.29-2.9-18.68-1.81-28.19c0.15-1.29,0.2-2.59,0.27-3.88c0.02-0.35-0.08-0.71-0.13-1.04
		c-0.56-0.12-0.75,0.25-0.92,0.57c-6.52,12.89-11.85,26.2-14.23,40.54c-1.69,10.18-1.26,20.18,2.96,29.75
		c3.62,8.21,9.64,14.33,17.16,19.09c10.13,6.41,21.36,9.82,32.98,12.16c3.17,0.64,6.39,1.06,9.58,1.62c1.27,0.22,2.59,0.4,3.78,0.87
		c2.21,0.86,2.41,2.54,0.6,4.16c-0.29,0.26-0.63,0.45-0.96,0.66c-16.67,10.54-34.55,14.35-53.89,9.48
		c-13.5-3.4-24.02-11.29-32.38-22.23c-10.63-13.89-15.48-29.54-13.55-46.98c1.81-16.36,9.25-30.06,20.99-41.47
		c6.11-5.93,13.01-10.84,20.36-15.22c-0.58-1.16-1.58-0.64-2.31-0.45c-14.25,3.72-28.32,7.93-40.91,15.93
		c-7.1,4.51-13.31,9.91-17.65,17.21c-6.55,11.01-7.13,22.77-4.24,34.95c3.03,12.77,8.88,24.29,15.65,35.4
		c0.54,0.89,1.13,1.74,1.66,2.63c0.63,1.04,1.03,2.11,0.11,3.23c-0.88,1.07-1.93,1.1-3.14,0.62c-2.41-0.95-4.87-1.75-7.26-2.76
		c-13.5-5.68-24.95-14.05-32.22-26.96c-13.1-23.27-11.63-46.4,3.11-68.24c14.32-21.23,35.27-29.53,60.44-27.99
		c7.54,0.46,14.84,2.24,22.01,4.55c1.08,0.35,2.18,0.65,3.17,0.94c0.79-0.95,0.12-1.42-0.3-1.77c-12.24-10.11-25-19.39-40.14-24.78
		c-7.52-2.68-15.22-4.23-23.27-3.21c-12.54,1.58-22.2,8.13-30.1,17.62c-6.77,8.14-11.8,17.33-16.03,26.99
		c-1.14,2.61-2.16,5.27-3.25,7.9c-0.25,0.6-0.46,1.23-0.82,1.75c-0.58,0.85-1.17,1.87-2.38,1.74c-1.29-0.14-1.94-1.1-2.33-2.3
		c-4.47-13.67-6.66-27.62-2.52-41.66c6.97-23.62,22.73-38.53,46.69-44.16c21.16-4.98,40.39-0.45,57.08,13.68
		c9.18,7.77,15.75,17.48,20.25,28.61c1.26,3.12,2.42,6.29,3.67,9.41c0.32,0.8,0.37,1.82,1.57,2.28c0.72-0.57,0.73-1.51,0.75-2.31
		c0.51-15.48-0.02-30.86-4.54-45.84c-1.35-4.48-3.16-8.78-5.55-12.81c-7.56-12.76-18.93-19.48-33.51-21.17
		c-14.04-1.62-27.63,0.84-41.08,4.52c-1.62,0.44-3.25,0.89-4.87,1.32c-1.34,0.36-2.71,0.31-3.46-0.95
		c-0.65-1.09-0.09-2.25,0.59-3.26c9.48-14.07,21.51-24.86,38.23-29.53c39.07-10.9,73.76,18.25,79.51,50.1
		c2.85,15.79,0.23,30.67-6.73,44.94c-2.56,5.25-5.59,10.22-8.98,14.98c-0.29,0.41-0.66,0.81-0.52,1.43c0.41,0.5,0.88,0.24,1.3-0.04
		c13.1-8.99,25.43-18.85,34.94-31.77c5.54-7.52,9.47-15.72,10.38-25.19c0.73-7.69-0.62-14.96-3.83-21.94
		c-4.24-9.22-10.58-16.86-17.83-23.83c-4.87-4.68-10.23-8.78-15.5-12.98c-1.01-0.8-2.04-1.65-2.79-2.67
		c-1.25-1.72-0.73-2.9,1.29-3.38c0.38-0.09,0.77-0.12,1.16-0.15c20.15-1.15,38.38,3.53,53.13,18.07
		c10.35,10.21,15.88,22.88,17.69,37.21c3.77,29.86-13.49,62.06-50.95,71.76c-6.81,1.76-13.74,2.57-20.75,2.88
		c-1.19,0.05-2.77-0.33-2.99,1.62c-0.2,1.83,1.29,2.09,2.47,2.43c14.49,4.22,29.15,7.38,44.37,6.86c4.94-0.17,9.83-0.79,14.56-2.27
		c15.19-4.76,24.66-15.23,29.53-30.07c3.34-10.18,4.55-20.73,4.72-31.41c0.05-3.24-0.03-6.48-0.04-9.73c0-1.16-0.07-2.34,0.4-3.45
		c0.63-1.5,1.67-1.91,3.08-1.09c0.66,0.38,1.25,0.93,1.76,1.51c11.23,12.77,18.59,27.33,18.49,44.61
		c-0.15,26.08-12.74,45.06-35.61,56.75c-21.22,10.85-42.46,9.53-63.08-2.54c-7.22-4.23-13.42-9.7-19.4-15.39
		C412.22,296.71,410.91,294.28,408.46,292.47z"/>
	<path class="st0" d="M306.81,647.13c4.93,0,9.86,0.08,14.78-0.04c1.92-0.04,2.45,0.65,2.43,2.48c-0.07,9.21-0.12,18.42,0.02,27.62
		c0.03,2.25-1.25,3.31-2.7,4.35c-6.97,4.98-14.76,8.02-23.16,9.51c-6.58,1.17-13.16,1.05-19.7-0.43
		c-13.47-3.06-22.71-10.96-27.11-24.12c-4.28-12.81-4.11-25.59,1.95-37.81c6.23-12.56,16.78-19.05,30.67-20.03
		c6.22-0.44,12.44-0.26,18.52,1.5c9.99,2.9,16.56,9.3,19.68,19.21c0.84,2.65,0.69,2.86-1.92,3.36c-3.69,0.72-7.39,1.37-11.07,2.11
		c-1.54,0.31-2.53,0.28-3.29-1.55c-3.11-7.43-9.07-10.67-16.9-10.78c-8.68-0.12-15.69,2.99-20.14,10.77
		c-1.29,2.26-2.09,4.72-2.56,7.3c-1.22,6.73-1.21,13.44,0.49,20.06c3.23,12.59,13.82,19.06,26.67,16.54c4.4-0.86,8.36-2.68,12.14-5
		c1.32-0.81,2.08-1.81,1.93-3.48c-0.22-2.43,0.94-5.43-0.49-7.18c-1.53-1.88-4.62-0.55-7.02-0.68c-2.97-0.16-5.97-0.12-8.94-0.01
		c-1.74,0.07-2.24-0.62-2.19-2.26c0.09-2.98,0.14-5.97-0.01-8.95c-0.11-2.14,0.8-2.67,2.75-2.57c2.59,0.13,5.19,0.03,7.78,0.03
		C301.89,647.13,304.35,647.13,306.81,647.13z"/>
	<path class="st0" d="M367.11,608.58c5.44-0.15,10.57,0.44,15.48,2.32c8.95,3.43,13.83,10.05,15.19,19.44
		c0.26,1.78-0.08,2.67-2.07,2.72c-4.01,0.09-8.03,0.28-12.04,0.55c-1.64,0.11-2.37-0.59-2.65-2.08c-0.27-1.41-0.87-2.7-1.59-3.94
		c-1.15-1.98-2.75-3.45-4.9-4.23c-5.47-1.98-10.94-1.85-16.31,0.3c-2.79,1.11-4.97,2.95-4.88,6.32c0.08,3.11,2.05,4.88,4.67,6.11
		c2.71,1.27,5.54,2.15,8.42,2.92c5.37,1.44,10.84,2.52,16.07,4.49c1.09,0.41,2.2,0.78,3.26,1.24c9.79,4.24,14.73,11.97,14.48,22.64
		c-0.23,9.79-6.12,18.38-15.47,21.73c-10.57,3.79-21.4,3.96-32.03,0.34c-10.85-3.69-15.9-12.24-17.76-23.05
		c-0.25-1.45-0.1-2.45,1.82-2.56c3.88-0.23,7.75-0.58,11.6-1.1c1.7-0.23,2.34,0.41,2.7,1.89c0.3,1.25,0.68,2.5,1.17,3.69
		c2.02,4.9,5.59,8.05,10.82,9.1c4.38,0.89,8.77,0.79,13.03-0.71c2.91-1.03,5.21-2.87,6.64-5.65c2.24-4.33,0.99-8.57-3.25-10.97
		c-2.15-1.22-4.54-1.87-6.91-2.51c-5.37-1.46-10.74-2.88-16.09-4.42c-2.99-0.86-5.86-2.09-8.49-3.77
		c-7-4.46-10.79-10.85-10.42-19.17c0.39-8.64,4.85-14.87,12.66-18.57C355.66,609.12,361.42,608.37,367.11,608.58z"/>
	<path class="st0" d="M462.63,633.48c0.19,0-0.33,0-0.85,0c-1.55,0-3.25,0.41-4.61-0.1c-1.52-0.57-1.27-2.61-1.86-3.99
		c-1.34-3.16-3.51-5.48-6.83-6.44c-4.86-1.41-9.73-1.34-14.52,0.37c-1.08,0.39-2.14,0.95-3.07,1.63c-3.46,2.51-3.6,6.83-0.35,9.63
		c1.6,1.38,3.57,2.08,5.51,2.79c5.48,2.01,11.26,2.94,16.83,4.64c2.85,0.87,5.68,1.76,8.4,3c9.37,4.28,14.02,11.61,13.82,21.86
		c-0.2,10.15-4.83,17.86-14.23,21.72c-11.17,4.59-22.81,4.68-34.16,0.47c-10.47-3.89-15.01-12.51-16.88-22.92
		c-0.25-1.4,0.14-2.16,1.74-2.27c4-0.29,8-0.68,11.99-1.14c1.47-0.17,2.17,0.33,2.44,1.75c0.19,1.01,0.52,2.01,0.87,2.98
		c1.96,5.42,5.67,8.91,11.38,10.01c4.12,0.8,8.25,0.7,12.3-0.54c2.15-0.66,3.98-1.87,5.51-3.51c4.49-4.81,3.41-10.87-2.52-13.74
		c-3.75-1.82-7.85-2.6-11.86-3.61c-5.65-1.43-11.31-2.81-16.56-5.44c-5.44-2.73-9.46-6.8-11.46-12.61
		c-3.56-10.32,1.11-21.27,11.08-26.16c3.05-1.49,6.28-2.45,9.64-2.85c7.13-0.84,14.24-0.88,21.19,1.22
		c9.42,2.85,15.12,9.14,16.94,18.84c0.68,3.64,0.58,3.71-2.96,4.04c-0.52,0.05-1.03,0.09-1.55,0.12
		C466.45,633.31,464.89,633.38,462.63,633.48z"/>
	<path class="st0" d="M553.13,650.24c0,12.31,0.01,24.62-0.01,36.93c0,3.2-0.04,3.22-3.11,3.24c-3.5,0.03-7,0.04-10.5,0
		c-2.68-0.03-2.74-0.07-2.75-2.88c-0.03-9.2-0.01-18.4-0.01-27.6c0-0.91-0.05-1.82,0-2.72c0.08-1.55-0.72-1.98-2.14-1.96
		c-3.63,0.05-7.26,0.01-10.88,0.01c-5.31,0-10.63,0.09-15.94-0.04c-2.12-0.05-2.63,0.78-2.61,2.71c0.07,9.72,0.04,19.44,0.03,29.16
		c0,3.29-0.03,3.31-3.44,3.32c-3.63,0.02-7.26-0.04-10.88,0.02c-1.45,0.02-2.18-0.43-2.04-1.99c0.08-0.9,0.02-1.81,0.02-2.72
		c-0.02-24.23-0.04-48.46-0.06-72.69c0-3.06-0.01-3.07,3.22-3.08c3.37-0.02,6.74-0.03,10.11-0.03c3.06,0,3.09,0,3.09,3.28
		c0.01,8.29,0.01,16.59,0,24.88c0,3.49-0.14,3.35,3.44,3.34c8.42-0.01,16.85,0.02,25.27-0.01c2.74-0.01,2.82-0.07,2.83-2.78
		c0.04-8.55,0-17.1,0.02-25.66c0.01-3.04,0.04-3.05,2.91-3.05c3.5,0,7,0.01,10.5,0.03c2.91,0.02,2.95,0.04,2.96,2.97
		C553.14,625.36,553.13,637.8,553.13,650.24z"/>
	<path class="st0" d="M287.78,773.38c3.42-2.98,6.39-5.28,9-7.93c2.04-2.07,4.02-2.49,6.55-1.21c1.03,0.52,2.18,0.8,3.24,1.17
		c0.33,1.28-0.73,1.58-1.37,2.12c-4.71,3.87-9.41,7.73-14.17,11.54c-1.47,1.17-2.48,2.5-2.99,4.37c-0.86,3.12-2.02,6.15-3.01,9.23
		c-0.49,1.52-1.26,2.19-2.83,1.32c-0.33-0.18-0.75-0.2-1.12-0.32c-3.57-1.16-3.51-1.14-2.4-4.79c1.09-3.58,3.26-7.02,3.17-10.72
		c-0.09-3.54-1.47-7.07-2.41-10.56c-0.71-2.61-1.01-5.34-2.31-8.14c-1.02,1.87-2.23,1.68-3.85,1.01c-2.21-0.92-4.55-3.18-6.74-2.13
		c-1.91,0.92-2.1,3.97-3.02,6.09c-2.41,5.59-4.73,11.22-7.1,16.82c-1.21,2.85-1.23,2.85-4.17,1.63c-1.07-0.44-2.1-0.97-3.34-1.54
		c0.22-1.87,1.14-3.43,1.81-5.05c2.66-6.47,5.32-12.94,8.13-19.34c0.76-1.73,0.54-2.51-1.25-3.16c-2.41-0.86-4.73-1.98-7.05-2.98
		c1.73-5.78,1.71-5.74,6.86-3.65c8.4,3.4,16.57,7.36,25.2,10.16c1.73,0.56,2.04,1.82,2.35,3.19
		C285.88,764.53,286.74,768.56,287.78,773.38z"/>
	<path class="st0" d="M134.05,133.33c-0.66-2.5-1.1-4.52-1.73-6.47c-0.88-2.71-2.76-4.65-5.16-6.1c-2.27-1.37-4.48-1.17-6.01,0.49
		c-1.43,1.55-1.23,3.22,0.58,5.53c1.43,1.83,3.57,3,4.8,5.06c-0.76,1.45-1.86,2.49-3.41,3.65c-1.56-1.4-3.12-2.88-4.77-4.25
		c-2.49-2.08-4.13-2.35-5.49-1.04c-1.51,1.45-1.18,3.35,1.03,5.74c0.7,0.76,1.48,1.45,2.22,2.17c2.6,2.51,2.54,3.05-0.14,5.3
		c-0.94,0.8-1.55,0.57-2.31-0.15c-1.42-1.33-2.79-2.71-4.34-3.88c-2.07-1.57-3.55-1.58-4.91-0.36c-1.41,1.26-1.74,3.37-0.68,5.34
		c1.46,2.72,3.66,4.74,6.54,5.81c3.9,1.45,7.89,1.14,11.85,0.13c1.22-0.31,1.91-1.3,2.74-2.08c3.12-2.94,6.26-5.84,10.05-7.9
		c2.8-1.52,5.63-1.7,8.78,0.18c-1.91,2.46-3.11,5.32-6.96,5.13c-1.75-0.09-3.06,1.28-4.34,2.37c-4.85,4.15-9.07,8.86-12.41,14.31
		c-3.81-2.31-3.81-2.31-2.47-5.79c-1.63,0-3.12,0.08-4.61-0.01c-7.18-0.45-13.33-5.32-14.83-11.68c-1.25-5.31,1.69-10.35,7-11.54
		c1.45-0.32,1.81-0.75,1.94-2.16c0.35-3.65,2.5-5.93,6.09-6.55c1.44-0.25,1.77-0.79,2.05-2.15c1.3-6.33,7.88-9.68,13.8-7.1
		c5.28,2.3,8.13,6.61,9.66,11.97c0.23,0.8,0.19,1.51-0.43,2.14C136.98,130.71,135.87,132.13,134.05,133.33z"/>
	<path class="st0" d="M83.25,218.12c-2.14-3.94-4.32-7.45-7.3-10.4c-2.8-2.78-6.01-4.9-9.69-6.32c-1.74-0.67-3.51-0.86-5.34-0.57
		c-1.72,0.27-2.76,1.33-3.29,2.93c-0.52,1.59-0.21,2.72,1.59,3.3c2.09,0.67,4.16,1.45,6.15,2.36c3.32,1.52,6.36,3.49,9.02,6.01
		c1.82,1.72,3.19,3.71,3.93,6.15c1.8,5.95-1.38,11.03-7.52,11.96c-0.38,0.06-0.78,0.11-1.16,0.1c-9.3-0.33-16.74-4.42-22.05-11.87
		c-3.41-4.78-1.88-10.1,3.17-13.33c1.21-0.77,1.71-1.47,1.73-3c0.06-6.7,4.62-10.81,11.32-10.22c6.82,0.6,12.1,4.29,16.77,8.96
		c1.27,1.27,2.45,2.71,3.38,4.25C86.86,213.25,87.68,212,83.25,218.12z M68.86,228.29c1.81-0.02,3.59-0.04,4.43-1.89
		c0.76-1.69,0.24-3.3-0.79-4.74c-0.45-0.63-0.99-1.2-1.57-1.71c-3.62-3.22-7.8-5.49-12.32-7.16c-1.34-0.5-2.79-0.59-4.21-0.36
		c-2.77,0.45-4.11,2.93-2.96,5.49c0.59,1.33,1.58,2.36,2.71,3.25c3.47,2.74,7.29,4.88,11.41,6.47
		C66.66,228.07,67.8,228.21,68.86,228.29z"/>
	<path class="st0" d="M47.66,564.35c-1.79,6.04-5.8,10.44-9.3,15.89c-1.17-2.59-2.02-4.56-2.94-6.5c-0.68-1.43,0.13-2.48,0.82-3.56
		c2.01-3.17,4.02-6.33,6.03-9.49c1.28-2.01,1.38-4.1,0.55-6.31c-0.54-1.43-1.19-2.08-2.87-1.3c-3.62,1.69-7.33,3.18-10.92,4.72
		c-0.35-0.31-0.6-0.45-0.71-0.66c-2.85-5.6-2.85-5.61,2.79-8.05c7.94-3.45,15.89-6.89,23.83-10.33c2.77-1.2,2.81-1.2,3.94,1.4
		c1.91,4.39,3.78,8.79,5.63,13.2c0.45,1.07,0.86,2.17,1.12,3.3c1.05,4.61-0.58,8.33-4.52,10.54c-3.99,2.24-7.99,1.77-11.44-1.32
		C49.13,565.36,48.81,564.57,47.66,564.35z M59.35,557.4c-0.19-1.75-1.05-3.37-1.75-5.03c-2.66-6.33-3.07-6.45-9.03-3.01
		c-0.22,0.13-0.55,0.17-0.67,0.36c-0.19,0.29-0.44,0.76-0.34,1.01c1.39,3.33,2.42,6.87,4.81,9.68c1.14,1.34,2.79,1.22,4.32,0.62
		C58.28,560.4,59.15,559.18,59.35,557.4z"/>
	<path class="st0" d="M604.26,748.38c1.83,0.61,3.74,1.02,5.44,1.86c3.59,1.77,7.06,3.77,10.82,5.8c-1.8,2.07-4.19,2.75-6.22,3.97
		c-1.12,0.67-1.99-0.13-2.88-0.57c-3.6-1.77-7.18-3.55-10.74-5.39c-2.21-1.14-4.22-0.68-6.27,0.43c-1.15,0.62-1.44,1.33-0.8,2.47
		c1.64,2.93,3.17,5.94,4.93,8.8c1.06,1.72,0.87,2.69-0.99,3.58c-4.78,2.28-3.62,3.04-6.2-1.59c-4.47-8.02-8.9-16.07-13.32-24.12
		c-1.43-2.6-1.42-2.7,1.15-4.07c5.02-2.68,9.84-5.72,15.09-7.97c8.22-3.53,14.07,4.26,13.32,10c-0.21,1.6-0.84,2.96-1.67,4.29
		C605.39,746.72,604.26,747.18,604.26,748.38z M596.41,737.62c-1.71,0.02-3.32,1.2-5.01,2.11c-6.21,3.35-6.21,3.4-2.21,9.19
		c0.46,0.67,0.81,1.36,1.79,0.83c2.83-1.55,5.81-2.86,8.31-4.95c1.5-1.25,1.66-2.87,0.97-4.57
		C599.63,738.69,598.53,737.66,596.41,737.62z"/>
	<path class="st0" d="M741.77,256.23c-0.97-2-1.75-3.62-2.55-5.24c-0.42-0.85-0.62-1.63-0.02-2.54c1.05-1.6,0.49-3.22-0.09-4.83
		c-1.41-3.91-3.48-7.49-5.62-11.01c3.58-2.7,3.58-2.7,6.24-0.76c0.66-1.11,1.27-2.24,1.97-3.3c2.83-4.27,6.7-7.13,11.66-8.47
		c7.35-1.99,13.43,2.1,13.99,9.66c0.15,1.96,0.57,3.2,2.09,4.56c5.43,4.85,4.67,12.89-1.38,16.98c-3.62,2.44-7.53,3.48-11.79,2.16
		c-4.58-1.42-7.37-5.44-7.35-10.28c0.03-5.26,3.36-9.63,8.58-11.17c0.99-0.29,2.03-0.56,3.05-0.57c2.14-0.02,1.89-1.27,1.44-2.59
		c-0.87-2.53-3.07-3.78-5.81-3.38c-5.73,0.85-11.61,6.43-12.95,12.08c-0.34,1.42,0.16,2.56,0.54,3.75c0.9,2.86,1.61,5.73,1.48,8.76
		C745.15,252.49,744.28,254.52,741.77,256.23z M762.17,236.83c-2.21,0.3-4.35,1.18-6.13,2.78c-1.75,1.56-2.31,4.13-1.41,6.01
		c0.88,1.84,3.28,3.02,5.61,2.58c2.06-0.39,3.96-1.24,5.53-2.66c1.78-1.61,2.36-3.75,1.58-5.6
		C766.63,238.19,764.41,236.82,762.17,236.83z"/>
	<path class="st0" d="M781.94,501.1c5.87,1.32,11.6,2.61,17.34,3.9c0.63,0.14,1.29,0.18,1.9,0.38c0.79,0.26,1.34,0.73,1.1,1.72
		c-0.22,0.88-0.39,1.77-0.53,2.67c-0.3,1.96-1.18,2.38-3.2,1.9c-9.58-2.25-19.19-4.34-28.81-6.37c-1.81-0.38-2.65-0.66-2.22-2.95
		c0.59-3.11,1.75-4.96,5.02-5.88c5.47-1.54,10.8-3.58,16.16-5.5c1.3-0.46,2.82-0.59,3.99-2.09c-5.98-1.34-11.75-2.63-17.53-3.92
		c-0.63-0.14-1.27-0.24-1.9-0.39c-1.22-0.29-1.51-0.88-1.27-2.23c0.83-4.68,0.74-4.72,5.27-3.73c9.1,1.99,18.18,4.09,27.31,5.97
		c2.09,0.43,2.32,1.22,2.04,3.13c-0.45,3.1-1.63,4.96-4.93,5.9c-5.83,1.68-11.49,3.96-17.23,5.99
		C783.62,499.89,782.67,499.97,781.94,501.1z"/>
	<path class="st0" d="M107.02,647.46c-5.99,5-11.31,9.42-16.65,13.87c-1.77-1.53-3.01-3.14-4.13-4.86c1.19-1.72,2.87-2.75,4.35-3.99
		c6.72-5.68,13.5-11.31,20.18-17.03c1.37-1.18,2.12-1.19,3.45,0.2c2.16,2.26,2.94,4.29,1.68,7.49c-2.33,5.88-4.08,11.99-6.07,18.01
		c-0.24,0.72-0.68,1.41-0.32,2.48c1.37-0.4,2.24-1.53,3.24-2.35c4-3.28,7.97-6.61,11.89-10c1.13-0.98,1.81-0.91,2.83,0.2
		c3.22,3.5,3.27,3.46-0.49,6.62c-6.93,5.84-13.86,11.67-20.81,17.49c-2.38,1.99-2.25,1.81-4.54-0.4c-2.19-2.11-2.32-4.13-1.29-6.89
		c2.15-5.76,3.93-11.66,5.85-17.51C106.46,649.94,106.62,649.06,107.02,647.46z"/>
	<path class="st0" d="M400.12,799.6c4.91,4.32,6.95,9.97,10.32,15.27c-2.81,0-5.09,0-7.37,0c-1.28,0-1.67-1.04-2.22-1.91
		c-2.12-3.41-4.26-6.8-6.37-10.22c-1.29-2.09-3.22-2.84-5.58-2.93c-1.3-0.05-1.9,0.4-1.96,1.72c-0.14,3.24-0.33,6.47-0.51,9.71
		c-0.15,2.81-0.15,2.82-2.81,2.81c-0.65,0-1.3-0.09-1.94-0.04c-1.82,0.13-2.55-0.6-2.41-2.5c0.29-4.14,0.42-8.28,0.61-12.43
		c0.28-6.08,0.55-12.17,0.84-18.25c0.02-0.5,0.18-1,0.35-1.91c6.47,0.39,12.94,0.53,19.35,1.25c5.25,0.59,8.05,3.84,8.39,8.65
		c0.28,4.02-1.63,8.67-6.82,10.03C401.49,798.98,401.03,799.23,400.12,799.6z M392.82,794.3c1.98,0,3.28,0.02,4.57-0.01
		c0.38-0.01,0.76-0.15,1.13-0.27c1.95-0.69,2.83-2.01,2.78-4.15c-0.05-2.14-0.97-3.5-3.12-3.8c-2.94-0.4-5.93-0.48-8.89-0.68
		c-0.82-0.05-1.61,0.12-1.7,1.12c-0.2,2.3-1.03,4.87,0.07,6.83c0.85,1.52,3.34,0.61,5.08,0.95
		C392.99,794.34,393.25,794.33,392.82,794.3z"/>
	<path class="st0" d="M524.58,798.33c-0.39,0.51-0.45,0.65-0.53,0.68c-7.15,2.14-7.14,2.12-12.79-3.02
		c-1.82-1.66-3.71-3.23-5.57-4.84c-1.62-1.41-3.52-1.42-5.5-1.12c-1.7,0.25-2.11,1.14-1.69,2.72c0.85,3.25,1.5,6.56,2.46,9.78
		c0.51,1.7-0.06,2.38-1.58,2.71c-0.13,0.03-0.25,0.07-0.37,0.1c-4.44,1.25-4.43,1.25-5.55-3.22c-2.22-8.91-4.47-17.81-6.66-26.73
		c-0.68-2.78-0.63-2.81,2.21-3.53c4.14-1.05,8.29-2.04,12.42-3.12c1.64-0.43,3.3-0.65,4.98-0.74c4.72-0.25,7.7,1.64,9.35,5.92
		c1.67,4.33,0.64,8.28-2.92,11.13c-0.6,0.48-1.27,0.89-2.33,1.62C516.37,789.46,520.06,794.37,524.58,798.33z M504.14,774.3
		c-0.78-0.07-2.23,0.57-3.72,0.92c-6.19,1.45-6.18,1.48-4.36,7.64c0.07,0.25,0.09,0.51,0.16,0.76c0.24,0.86,0.75,1.28,1.7,1.07
		c3.01-0.67,6.06-1.23,8.89-2.49c2.1-0.93,2.86-2.62,2.36-4.7C508.65,775.39,507.22,774.31,504.14,774.3z"/>
	<path class="st0" d="M1.19,458.23c0.1-5.1,3.08-10.25,9.56-13.21c3.86-1.77,7.91-2.52,12.1-1.96
		c11.04,1.49,17.88,13.93,13.42,24.23c-1.13,2.61-3.02,4.47-5.47,5.83c-1.17,0.65-1.93,0.39-2.33-0.9c-0.27-0.86-0.51-1.75-0.9-2.56
		c-0.77-1.61-0.47-2.59,0.95-3.92c4.77-4.51,2.47-13.29-3.9-14.97c-4.85-1.28-9.58-0.48-13.68,2.48
		c-4.81,3.46-4.68,12.29,0.09,15.71c1.32,0.95,2.79,0.5,4.07,0.02c1.16-0.44,0.43-1.56,0.34-2.4c-0.07-0.64-0.18-1.28-0.26-1.92
		c-0.49-3.79-0.48-3.71,3.29-4.15c1.43-0.17,2.16,0.03,2.38,1.59c0.53,3.84,1.16,7.67,1.79,11.5c0.23,1.41-0.46,1.8-1.68,1.97
		c-3.2,0.46-6.41,0.9-9.58,1.52c-2.09,0.4-3.42-0.45-4.67-1.96C3.4,471.14,1.23,465.36,1.19,458.23z"/>
	<path class="st0" d="M77.02,598.44c-1.49-0.64-2.03-2.07-3.02-3.06c-1.21-1.21-1.6-2.32-0.51-4.06c1.97-3.14,1.02-6.27-1.03-9.04
		c-2.05-2.78-4.87-4.39-8.4-3.78c-4.19,0.72-7.85,2.66-10.63,5.96c-4.22,5.02-1.63,13.66,4.63,15.74c1.67,0.56,2.77-0.48,3.8-1.35
		c0.89-0.75-0.09-1.65-0.41-2.43c-0.25-0.59-0.71-1.1-0.92-1.71c-0.37-1.05-1.73-1.98-1.04-3.13c0.81-1.37,2.5-1.77,3.91-2.33
		c0.92-0.37,1.32,0.52,1.69,1.2c1.85,3.42,3.67,6.85,5.57,10.24c0.57,1.02,0.44,1.65-0.56,2.19c-3.31,1.77-6.62,3.55-9.91,5.35
		c-0.9,0.49-1.69,0.37-2.58-0.04c-6.79-3.18-13.61-11.63-12.8-20.55c0.1-1.15,0.37-2.31,0.74-3.4c2.94-8.74,14.56-14.76,23.39-12.16
		c6.98,2.06,13.09,11.1,12.35,18.4C80.95,593.69,79.56,596.38,77.02,598.44z"/>
	<path class="st0" d="M537.62,793.99c-5.38,0.2-9.53-2.09-12.74-6.23c-2.87-3.69-4.35-7.95-4.56-12.57
		c-0.42-9.04,5.99-15.87,15.95-17.3c4.7-0.67,8.71,0.4,11.91,4.05c1.12,1.27,1.1,2.22-0.51,2.99c-0.82,0.39-1.61,0.84-2.37,1.33
		c-1.2,0.79-2.14,0.91-3.39-0.2c-3.2-2.86-6.71-2.19-10.06-0.24c-3.35,1.96-4.76,5.08-4.35,8.87c0.32,2.98,1.31,5.8,2.95,8.35
		c4.68,7.29,12.91,5.29,17.28-0.2c1.13-1.42,0.26-2.74-0.31-3.99c-0.66-1.43-1.77-0.46-2.68-0.26c-0.63,0.13-1.22,0.43-1.84,0.59
		c-1.08,0.29-2.24,1.44-3.24,0.57c-1.17-1.02-1.33-2.74-1.7-4.23c-0.2-0.79,0.42-1.09,1.08-1.32c3.79-1.29,7.6-2.54,11.36-3.94
		c1.39-0.52,1.89,0.07,2.27,1.19c1.13,3.3,2.18,6.64,3.41,9.9c0.55,1.46,0.08,2.49-0.78,3.54
		C550.69,790.44,544.97,793.82,537.62,793.99z"/>
	<path class="st0" d="M16.72,524.29c0.04-3.48,1.02-6.69,3.31-9.3c4.97-5.65,11.53-7.92,18.79-7.24
		c7.67,0.72,12.43,6.08,13.94,14.47c1.29,7.14-1.65,13.23-8.19,16.88c-3.32,1.85-6.91,2.93-10.69,3.16
		C24.28,542.84,16.6,534.75,16.72,524.29z M32.91,534.87c3.39-0.13,6.97-1.18,10.08-3.47c3.51-2.59,4.58-6.27,3.19-10.33
		c-1.31-3.81-4.47-6.24-8.52-6.2c-3.97,0.05-7.68,1.22-10.86,3.67c-3.29,2.54-4.4,6.25-3.14,10.03
		C25.03,532.65,28.07,534.83,32.91,534.87z"/>
	<path class="st0" d="M182.54,709.76c-0.08,8.63-8.37,18.05-16.84,19.23c-8.96,1.24-22.52-8.88-18.24-21.41
		c2.31-6.75,6.6-11.84,13.67-14.29C170.79,689.93,183.17,699.88,182.54,709.76z M175.56,708.76c0.11-6.71-7.23-11.43-13.16-8.29
		c-4.31,2.28-7.2,5.97-8.38,10.71c-1.52,6.12,4.45,12.16,10.56,10.9C169.63,721.03,175.47,713.95,175.56,708.76z"/>
	<path class="st0" d="M376.33,793.28c-0.05,1.52-0.17,3.31-0.58,5.09c-2.38,10.5-10.35,15.52-20.87,13.1
		c-7.18-1.65-11.64-6.7-12.42-14.03c-0.3-2.86-0.02-5.7,0.63-8.47c2.98-12.7,17.26-17.53,27.5-9.35
		C374.49,782.73,376.37,787.11,376.33,793.28z M349.76,795.99c0,0.05,0,0.7,0.07,1.34c0.52,4.39,3.43,7.57,7.54,8.24
		c4.55,0.75,8.26-1.13,10.05-5.44c1.51-3.63,2.25-7.44,1.17-11.39c-1.01-3.73-3.92-6.18-7.78-6.58c-4.02-0.42-7.27,1.19-9.09,4.61
		C350.29,789.46,349.69,792.36,349.76,795.99z"/>
	<path class="st0" d="M791.91,446.52c3.79,0.13,7.49,0.7,10.9,2.47c5.08,2.63,7.87,6.79,7.52,12.54c-0.3,4.9-1.11,9.78-1.68,14.66
		c-0.18,1.56-1.11,1.81-2.46,1.61c-3.85-0.55-7.7-1.04-11.56-1.55c-6.04-0.8-12.08-1.58-18.11-2.39c-2.67-0.36-2.76-0.51-2.4-3.22
		c0.47-3.6,0.91-7.2,1.43-10.79c1.32-9.08,6.39-13.4,15.57-13.33C791.39,446.52,791.65,446.52,791.91,446.52z M804.25,463.45
		c0.12-4.87-1.03-6.65-4.91-8.1c-2.93-1.1-5.99-1.57-9.11-1.55c-5.32,0.03-7.71,2.06-8.64,7.39c-0.2,1.14-0.35,2.3-0.59,3.44
		c-0.37,1.7,0.07,2.65,1.99,2.89c6.15,0.74,12.3,1.6,18.44,2.42c1.2,0.16,1.98-0.08,2.12-1.49
		C803.75,466.52,804.09,464.61,804.25,463.45z"/>
	<path class="st0" d="M679.93,705.24c-0.13,7.74-4.13,12.54-10.16,15.8c-5.66,3.06-11.33,2.49-16.41-1.33
		c-5.45-4.1-9.45-9.3-9.38-16.55c0.06-6.99,4.2-11.46,9.92-14.62c5.48-3.03,11.01-2.68,16.09,0.9
		C675.59,693.37,679.47,698.52,679.93,705.24z M672.83,705.42c-0.62-4.17-3.86-8.06-8.42-10.91c-3.15-1.97-6.78-1.51-9.78,0.87
		c-3.01,2.39-4.53,5.51-3.43,9.25c1.41,4.8,4.48,8.51,9.1,10.57C666.21,717.84,672.84,713.31,672.83,705.42z"/>
	<path class="st0" d="M66.14,251.53c-1.5-2.72-2.46-4.99-4.01-6.92c-2.34-2.93-5.2-5-8.88-5.88c-1.62-0.39-3.11-0.13-4.43,0.81
		c-2.05,1.45-2.91,4.75,0.21,6.33c1.85,0.93,3.77,1.7,5.65,2.57c2.44,1.13,2.43,1.14,1.34,3.72c-0.15,0.36-0.3,0.72-0.44,1.08
		c-0.49,1.28-1.26,1.37-2.44,0.79c-1.85-0.92-3.77-1.72-5.68-2.51c-1.75-0.72-3.5-1.14-4.88,0.75c-1.35,1.86-1.2,4.21,0.56,6.02
		c1.88,1.94,4.3,2.87,6.91,3.25c2.84,0.41,5.68,0.32,8.45-0.62c1.08-0.37,2.2-0.65,3.7-1.08c-0.37,2.45-1.69,4.23-2.4,6.2
		c-0.45,1.23-1.59,1.23-2.55,1.44c-15.12,3.26-28.13-9.89-24.72-24.95c0.23-1.01,0.53-2,0.86-2.98c1.09-3.23,1.35-3.28,4.3-1.85
		c1.36,0.66,1.5,1.36,1.05,2.74c-1.12,3.41-2.39,6.83-1.92,11.39c1.3-2.55,2.55-4.27,4.68-4.98c1.27-0.42,0.91-1.3,0.78-2.2
		c-1.14-7.89,5.17-13.62,12.89-11.6c5.65,1.48,9.87,4.97,13.08,9.78c0.82,1.23,0.86,2.34,0.21,3.63
		C67.69,247.95,67.05,249.5,66.14,251.53z"/>
	<path class="st0" d="M514.96,51.95c2.08-1.51,3.72-2.55,5.19-3.79c3.17-2.68,5.28-6.01,5.84-10.21c0.22-1.63-0.06-3.11-1.08-4.39
		c-2.04-2.55-5.21-2.24-6.48,0.74c-0.86,2.01-1.43,4.16-1.99,6.28c-0.39,1.5-0.85,2.19-2.66,1.67c-3.46-1-3.51-0.89-2.47-4.45
		c0.43-1.49,0.91-2.97,1.29-4.47c0.68-2.68,0.34-3.78-1.35-4.69c-1.88-1.01-4.2-0.65-5.65,1.03c-1.66,1.93-2.36,4.27-2.57,6.79
		c-0.33,3.88,0.69,7.44,2.42,10.85c0.23,0.45,0.41,0.93,0.69,1.59c-2.41,0.17-4.35-1.04-6.45-1.49c-1.05-0.22-1.28-1.15-1.58-2.03
		c-4.22-12.2,3.08-30.27,22.38-27.78c0.77,0.1,1.54,0.22,2.3,0.37c3.22,0.64,3.42,1.14,2.31,4.12c-0.48,1.28-1.19,1.56-2.34,1.31
		c-2.15-0.48-4.32-0.85-6.53-0.95c-1.63-0.08-3.27-0.24-5.02,0.61c2.5,0.43,4.24,1.77,5.34,3.91c0.6,1.17,1.42,0.7,2.28,0.36
		c3.86-1.55,7.13-0.17,10.03,2.3c2.05,1.75,3.1,4.1,3.1,6.87c0,7.02-3.34,12.33-8.5,16.74c-0.92,0.79-1.88,0.79-2.9,0.48
		C518.83,53.21,517.12,52.64,514.96,51.95z"/>
	<path class="st0" d="M747.24,605.13c1.67,1.6,3.85,2.25,5.62,3.52c1.84,1.33,2.66,0.47,3.54-1.17c2.25-4.23,4.72-8.35,6.92-12.61
		c0.91-1.76,1.77-1.75,3.31-0.87c3.08,1.75,3.15,1.69,1.37,4.92c-3.31,6.02-6.64,12.03-9.99,18.02c-0.52,0.94-0.84,2.32-2.54,1.37
		c-9.6-5.36-19.23-10.67-29.11-16.15c2.8-5.1,5.46-9.96,8.13-14.81c0.62-1.14,1.28-2.25,1.91-3.38c2.75-4.94,2.75-4.94,7.54-1.24
		c-2.87,5.27-5.76,10.58-8.68,15.95c2.22,1.45,4.15,2.69,6.52,3.55c2.43-4.39,4.87-8.66,7.14-13.02c0.88-1.68,1.76-2.06,3.27-0.89
		c0.4,0.31,0.88,0.57,1.36,0.75c1.72,0.65,1.54,1.71,0.79,3.04c-2.04,3.61-4.04,7.24-6.04,10.88
		C747.92,603.66,747.61,604.36,747.24,605.13z"/>
	<path class="st0" d="M580.07,760.99c-3.78,1.69-7.42,3.32-11.06,4.95c-1.06,0.48-2.11,0.99-3.18,1.44c-1,0.42-1.49,1.01-0.91,2.09
		c0.06,0.11,0.12,0.23,0.17,0.35c2.48,6.9,2.47,6.9,9.24,3.9c3.07-1.36,6.19-2.64,9.21-4.1c1.62-0.78,2.66-0.72,3.21,1.16
		c0.14,0.49,0.38,0.97,0.65,1.41c0.78,1.25,0.62,2.09-0.83,2.73c-6.98,3.08-13.95,6.19-20.91,9.34c-1.83,0.83-2.18-0.39-2.74-1.63
		c-2.88-6.51-5.8-13-8.71-19.49c-1.22-2.72-2.4-5.45-3.67-8.14c-0.6-1.27-0.59-2.02,0.92-2.68c6.76-2.94,13.47-5.99,20.19-9.02
		c1.09-0.49,1.96-0.6,2.43,0.8c0.25,0.73,0.59,1.44,0.97,2.11c0.76,1.35,0.33,2.09-1.03,2.69c-4.04,1.74-8.04,3.58-12.05,5.37
		c-0.71,0.32-1.44,0.59-2.11,0.97c-0.62,0.35-0.86,0.94-0.56,1.65c0.2,0.48,0.4,0.96,0.62,1.42c2.28,4.76,1.35,4.45,5.98,2.41
		c3.08-1.35,6.14-2.76,9.22-4.11c2.64-1.16,2.66-1.15,3.88,1.6C579.34,759.02,579.63,759.86,580.07,760.99z"/>
	<path class="st0" d="M753.67,284.84c2.68,0.43,5.34,0.97,8.03,1.26c6.29,0.68,12.05-1,17.38-4.27c1.48-0.91,2.66-2.05,2.74-3.97
		c0.12-2.64-1.38-4.17-4.02-3.92c-0.88,0.08-1.76,0.39-2.61,0.69c-2.2,0.76-4.38,1.57-6.58,2.34c-3.47,1.22-3.47,1.21-4.37-1.29
		c-0.96-2.69-0.96-2.69,2.71-4.02c2.43-0.88,4.88-1.72,7.28-2.68c2.71-1.08,3.67-2.34,3.35-4.09c-0.4-2.18-2.2-3.63-4.91-3.42
		c-7.16,0.55-13.12,3.7-17.98,8.93c-1.49,1.6-2.8,3.36-4.45,5.36c-1.24-1.89-1.61-3.87-2.32-5.7c-0.33-0.86-0.05-1.5,0.49-2.11
		c6.37-7.17,13.99-11.83,23.88-11.97c1.57-0.02,3.08,0.3,4.53,0.94c5.11,2.25,6.81,6.56,4.61,11.71c-0.14,0.33-0.24,0.69-0.35,1.03
		c9.08,3.63,6.62,13.01,1.36,16.75c-6.02,4.28-12.77,6.11-20.11,5.87c-0.39-0.01-0.77-0.07-1.16-0.1c-6.43-0.52-6.52-0.6-7.48-7.27
		L753.67,284.84z"/>
	<path class="st0" d="M232.08,741.9c-4,6-4,6,2.28,9.21c2.65,1.35,5.3,2.71,7.98,4c1.34,0.64,1.72,1.41,0.85,2.71
		c-0.36,0.53-0.63,1.13-0.86,1.74c-0.61,1.64-1.56,1.68-3,0.91c-3.53-1.9-7.12-3.68-10.7-5.49c-2.78-1.4-2.79-1.38-4.28,1.43
		c-2.82,5.3-2.82,5.29,2.4,7.96c3.34,1.71,6.64,3.51,10.03,5.11c1.71,0.81,1.93,1.64,1.06,3.29c-1.69,3.21-1.6,3.27-4.83,1.62
		c-5.99-3.05-11.98-6.12-17.95-9.2c-2.53-1.3-2.56-1.36-1.39-3.68c4.45-8.77,8.91-17.53,13.4-26.27c1.23-2.4,1.3-2.41,3.73-1.19
		c6.12,3.08,12.24,6.18,18.32,9.33c2.3,1.19,2.26,1.29,0.92,3.9c-1.33,2.6-1.39,2.66-3.7,1.51c-4.16-2.08-8.29-4.24-12.44-6.34
		C233.33,742.16,232.79,741.74,232.08,741.9z"/>
	<path class="st0" d="M27.69,504.29c-1.21,0.25-1.55-0.46-1.78-1.47c-0.95-4.03-1.96-8.05-2.94-12.07
		c-0.74-3.03-0.74-3.03-3.89-2.29c-5.94,1.4-5.94,1.4-4.43,7.45c0.84,3.39,1.71,6.78,2.51,10.18c0.63,2.67,0.56,2.73-2.55,3.44
		c-2.54,0.58-2.67,0.52-3.34-2.21c-1.69-6.91-3.31-13.84-5.07-20.74c-0.39-1.55-0.29-2.33,1.47-2.75
		c10.07-2.39,20.12-4.87,30.18-7.34c1.6-0.39,1.98,0.49,2.29,1.79c1.67,7.05,3.39,14.09,5.15,21.12c0.32,1.26,0.03,2-1.25,2.29
		c-0.63,0.14-1.29,0.2-1.89,0.42c-1.7,0.64-2.54,0.25-2.93-1.69c-0.85-4.18-1.97-8.31-2.98-12.46c-0.84-3.47-0.84-3.46-4.37-2.59
		c-0.38,0.09-0.76,0.17-1.13,0.27c-2.59,0.69-2.63,0.7-1.97,3.45c0.81,3.4,1.68,6.78,2.52,10.17
		C32.26,503.2,31.65,504.04,27.69,504.29z"/>
	<path class="st0" d="M710.89,631.15c-0.15-1.21-2.27-1.49-1.75-2.66c0.77-1.74,2-3.31,3.23-4.8c0.64-0.77,1.41,0.07,2.03,0.47
		c1.63,1.05,3.24,2.15,4.86,3.22c1.5,0.99,3,1.96,4.76,3.1c2.26-3.33,4.4-6.55,6.6-9.71c0.81-1.17,0.4-1.84-0.63-2.51
		c-2.49-1.63-4.96-3.3-7.42-4.97c-0.73-0.5-1.65-0.8-1.98-1.76c3.37-5.93,3.38-5.95,9.02-2.18c7.74,5.17,15.47,10.36,23.08,15.46
		c0.02,0.49,0.14,0.79,0.03,0.96c-3.33,5.45-3.33,5.45-8.64,1.92c-1.94-1.29-3.9-2.56-5.82-3.88c-0.96-0.66-1.77-0.98-2.57,0.24
		c-1.63,2.49-3.32,4.94-4.96,7.43c-0.49,0.75-1.14,1.43-1.21,2.7c3.28,2.23,6.65,4.62,10.13,6.83c1.54,0.98,1.98,1.82,0.75,3.34
		c-0.96,1.19-1.74,2.52-2.73,4c-6.56-4.38-12.87-8.67-19.27-12.82c-2.44-1.58-4.65-3.58-7.54-4.41L710.89,631.15z"/>
	<path class="st0" d="M124.61,683.2c0.99,0.71,1.6,1.19,2.24,1.6c2.09,1.35,3.28,2.57,2.07,5.58c-1.61,4.02,2.45,9.14,6.8,9.4
		c3.19,0.19,4.98-1.98,3.86-4.98c-0.62-1.67-1.71-3.18-2.65-4.72c-1.47-2.44-3.03-4.82-3.78-7.62c-0.92-3.45-0.1-6.46,2.36-8.93
		c2.6-2.59,5.84-3.4,9.31-2.22c5.17,1.76,8.84,5.35,11.04,10.29c1.34,3.02,0.89,6.08-0.82,8.93c-0.71,1.19-1.5,1.76-2.73,0.56
		c-0.83-0.81-1.73-1.57-2.66-2.27c-0.99-0.74-1-1.51-0.66-2.68c1.1-3.81-1.89-8.25-5.8-8.85c-2.02-0.31-3.46,1.23-3.02,3.33
		c0.33,1.54,1.16,2.87,1.98,4.19c1.5,2.42,3.14,4.76,4.25,7.4c1.83,4.36,1.15,8.22-2.11,11.42c-3.29,3.23-7.22,4.06-11.44,2.26
		c-4.55-1.94-8.1-5.16-10.23-9.66C120.46,691.68,121.55,687.44,124.61,683.2z"/>
	<path class="st0" d="M761.15,563.64c1.54-3.79,2.93-7.39,4.47-10.93c0.62-1.41-0.12-1.86-1.15-2.28c-2.99-1.23-5.97-2.48-8.98-3.65
		c-1.31-0.51-1.94-1.1-1.16-2.58c0.77-1.47,1.32-3.05,2.06-4.81c6.79,2.76,13.36,5.42,19.93,8.09c3.47,1.41,6.91,2.91,10.42,4.24
		c1.47,0.56,1.56,1.36,1.16,2.69c-1.48,4.83-1.56,4.9-6.29,2.99c-2.64-1.06-5.29-2.09-7.9-3.22c-1.39-0.6-2.11-0.2-2.63,1.16
		c-1.15,3.02-2.33,6.04-3.63,9c-0.57,1.3-0.2,1.87,1,2.35c3.48,1.39,6.91,2.91,10.42,4.24c1.41,0.53,1.72,1.14,1.24,2.59
		c-1.66,5.06-1.63,5.08-6.58,3.06c-8.26-3.38-16.52-6.74-24.78-10.13c-3.01-1.24-3-1.27-1.7-4.42c0.2-0.48,0.41-0.95,0.58-1.44
		c0.5-1.5,1.23-1.99,2.88-1.24C753.9,560.87,757.41,562.15,761.15,563.64z"/>
	<path class="st0" d="M439.53,778.35c3.61,0.08,7.33,0.9,9.9,4.36c0.61,0.82,1.07,1.79,1.39,2.76c0.75,2.23,0.44,2.64-1.9,2.94
		c-0.9,0.11-1.81,0.15-2.7,0.33c-1.16,0.24-1.78-0.06-2.47-1.16c-2.12-3.39-6.82-4.22-10.09-2c-2.11,1.44-2.01,3.74,0.33,4.89
		c2.11,1.04,4.48,1.27,6.77,1.67c2.04,0.37,4.06,0.78,6.01,1.49c4.06,1.49,6.29,4.37,6.59,8.71c0.31,4.44-1.31,8.02-5.27,10.02
		c-4.91,2.48-10.17,2.89-15.46,1.12c-3.91-1.31-5.98-4.34-7.17-8.1c-0.46-1.46,0.02-2.19,1.59-2.31c0.9-0.06,1.79-0.3,2.66-0.53
		c1.51-0.4,2.22,0.18,2.95,1.59c2.11,4.1,6.32,5.38,10.52,3.44c1.75-0.81,3.06-2.07,3.06-4.12c-0.01-2.22-1.6-3.11-3.49-3.54
		c-2.14-0.49-4.3-0.93-6.46-1.32c-1.79-0.32-3.54-0.77-5.2-1.52c-3.64-1.62-5.76-4.39-5.82-8.42c-0.06-4.22,2.14-7.11,5.88-8.81
		C433.65,778.71,436.36,778.39,439.53,778.35z"/>
	<path class="st0" d="M446.98,10.43c2.35,0.6,4.45,1.7,5.78,3.99c2.54-1.98,5.13-2.48,7.95-1.98c4.45,0.79,7.73,4.17,8.19,8.65
		c0.65,6.27-1.31,11.73-5.29,16.55c-0.91,1.1-1.9,1.67-3.34,1.43c-1.73-0.29-3.57-0.09-5.23-1.05c0.65-1.34,1.86-1.94,2.75-2.86
		c2.78-2.87,4.63-6.19,5.3-10.17c0.29-1.73,0.13-3.37-0.58-4.94c-0.82-1.8-3.02-3.04-4.74-2.73c-2.01,0.37-2.61,1.93-2.87,3.68
		c-0.31,2.05-0.67,4.1-0.8,6.16c-0.13,2.04-1.42,1.83-2.73,1.65c-1.31-0.18-3.12,0.21-2.87-2.11c0.21-1.93,0.46-3.85,0.69-5.78
		c0.35-2.99-0.36-4.5-2.34-5.07c-2.27-0.65-4.64,0.49-5.67,2.94c-2.03,4.83-0.89,9.4,1.47,13.78c0.78,1.45,1.76,2.78,2.64,4.16
		c-0.82,0.51-1.44,0.23-2.06,0.15c-6.35-0.74-6.68-0.85-8.17-7.14c-3.23-13.57,4.33-27.36,22.62-26.13
		c1.22,0.08,2.47,0.25,2.03,1.99c-0.32,1.29,0.57,3.35-2.14,3.21c-2.97-0.16-5.96-0.16-8.9,0.53
		C448.1,9.48,447.35,9.34,446.98,10.43z"/>
	<path class="st0" d="M703.49,166.03c-0.6-0.57-0.91-0.8-1.15-1.09c-2.88-3.48-2.57-2.69,0.43-5.22c1.98-1.67,4.06-3.22,6.02-4.91
		c2.27-1.95,2.81-3.69,1.83-5.32c-1.14-1.9-3.68-2.59-6.22-1.34c-4.86,2.39-8.8,5.87-11.65,10.53c-1.83,3-3,6.29-4.15,9.9
		c-2.18-1.09-3.04-3.18-4.41-4.76c-0.66-0.76-0.05-1.5,0.23-2.16c3.04-7.25,7.64-13.19,14.63-17.06c2.65-1.47,5.41-2.37,8.52-2.17
		c4.61,0.31,8.94,4.18,7.98,9.01c-0.1,0.47-0.01,0.99-0.01,1.72c2.08,0.24,4.16,0.28,5.83,1.73c2.75,2.4,3.75,6.77,2.31,10.73
		c-0.81,2.24-2.23,4.09-3.82,5.8c-4.93,5.3-11.04,8.43-18.06,10c-2.11,0.47-3.79,0.36-4.94-1.72c-0.61-1.1-1.82-1.83-2.1-3.55
		c2.32-0.23,4.59-0.41,6.81-0.89c6.02-1.33,11.05-4.32,15.19-8.82c0.78-0.85,1.48-1.82,1.99-2.85c0.99-2.01,0.53-3.87-1.04-5.26
		c-1.61-1.42-3.2-0.88-4.6,0.16C709.89,160.89,706.79,163.43,703.49,166.03z"/>
	<path class="st0" d="M144.42,98.04c0.04-8.74,8.58-11,14.41-7.55c4.8,2.85,8.35,6.93,10.97,11.83c1.1,2.06,2.03,4.21,2.61,6.48
		c1.41,5.6,2.81,4.91-4.21,9.42c-0.44-2.31-0.8-4.56-1.3-6.77c-1.35-6.03-4.55-10.96-9.15-15.01c-0.87-0.76-1.84-1.48-2.88-1.95
		c-1.94-0.88-4.09-0.27-5.26,1.27c-1.25,1.67-0.68,3.25,0.41,4.63c2,2.55,4.15,4.98,6.2,7.49c0.53,0.66,1.66,1.29,1.08,2.26
		c-0.73,1.21-1.93,2.16-3.24,2.7c-0.78,0.32-1.31-0.65-1.8-1.23c-2.29-2.64-4.5-5.36-6.87-7.93c-1.09-1.19-2.56-1.87-4.19-0.85
		c-1.56,0.98-2.35,2.41-2.09,4.27c0.2,1.43,0.85,2.71,1.64,3.91c3.74,5.72,8.72,9.88,15.25,12.07c1.46,0.49,2.92,0.97,4.76,1.58
		c-1.12,1.72-2.69,2.59-3.94,3.76c-0.96,0.9-1.92,0.93-3.18,0.43c-7.48-2.97-13.48-7.66-17.53-14.7c-1.46-2.53-2.22-5.21-2.01-8.17
		c0.37-5.13,3.4-7.98,8.55-7.94C143.16,98.04,143.66,98.04,144.42,98.04z"/>
	<path class="st0" d="M83.76,653.18c-0.59-0.41-0.73-0.46-0.8-0.56c-1.16-1.7-2.92-3.28-3.31-5.15c-0.42-1.99,1.7-3.57,2.84-5.21
		c1.06-1.52,1.05-2.63-0.1-4.09c-1.84-2.33-3.61-4.74-5.14-7.28c-1.04-1.71-2.18-1.72-3.87-1.29c-5.98,1.53-5.99,1.48-9.27-3.72
		c-0.07-0.1-0.07-0.25-0.13-0.44c0.35-0.99,1.33-0.99,2.15-1.19c10.15-2.54,20.3-5.07,30.45-7.58c3.07-0.76,3.1-0.75,5.03,1.94
		c2.93,4.09,2.79,2.92,0.21,6.92c-5.17,8.05-10.37,16.07-15.58,24.1C85.48,650.78,84.66,651.9,83.76,653.18z M94.23,624.82
		c-4.16,0.33-8,1.07-11.92,2.78c1.74,2.47,3.27,4.63,5.07,7.2C89.89,631.15,92.06,627.98,94.23,624.82z"/>
	<path class="st0" d="M478.21,795.88c-0.76-4.89-1.74-11.16-2.71-17.42c-0.12-0.77-0.25-1.53-0.38-2.3
		c-0.18-1.04,0.1-1.59,1.26-1.92c5-1.42,5.64-1.05,6.39,4.12c0.89,6.15,1.95,12.28,2.65,18.45c0.88,7.77-2.42,12.02-10.04,13.46
		c-2.04,0.39-4.08,0.71-6.17,0.64c-5.36-0.2-9.03-3-10.46-8.19c-1.55-5.63-2.07-11.46-3.07-17.19c-0.36-2.04-0.57-4.1-0.93-6.14
		c-0.24-1.34,0.3-1.75,1.58-2.01c5.11-1.03,5.12-1.09,5.98,4.1c0.93,5.62,1.72,11.27,2.71,16.88c0.95,5.38,4.19,7.33,9.22,5.78
		C477.64,803.06,478.53,801.55,478.21,795.88z"/>
	<path class="st0" d="M799.97,516.24c-0.07,0.47-0.09,0.97-0.24,1.43c-2.06,6.58-0.54,5.32-7.08,5.87
		c-2.33,0.19-3.44,0.93-3.97,3.15c-0.67,2.76-1.51,5.49-2.5,8.16c-0.55,1.48-0.38,2.46,0.96,3.25c0.22,0.13,0.41,0.32,0.61,0.48
		c4.9,3.9,4.9,3.9,2.08,10.04c-1.16,0-1.82-0.92-2.6-1.54c-8.02-6.35-16.01-12.72-24-19.11c-2.57-2.05-2.55-2.08-1.63-5.08
		c0.23-0.74,0.52-1.47,0.68-2.22c0.33-1.51,1.26-2.1,2.76-2.17c2.71-0.13,5.43-0.35,8.13-0.56c7.61-0.61,15.22-1.27,22.83-1.85
		C797.27,515.99,798.57,515.65,799.97,516.24z M780.41,532.91c0.88-3.14,2.2-5.5,2.25-8.19c-4.02,0-7.9,0-11.78,0
		c-0.1,0.26-0.19,0.51-0.29,0.77C773.7,527.84,776.8,530.18,780.41,532.91z"/>
	<path class="st0" d="M250.22,59.74c0.28,9.66-9.47,15.04-17.02,13.35c-2.1-0.47-3.88-1.44-5.5-3.04c-3.71-3.67-6-8-7.3-13
		c-0.87-3.36-0.06-6.29,1.3-9.35c0.96-2.16,3.36-3.3,3.6-6.09c0.09-1.06,2.84-2.6,4.18-1.81c1.6,0.95,2.98,0.49,4.42,0.52
		c4.58,0.11,8.24,1.87,10.99,5.55C247.99,50,250.09,54.49,250.22,59.74z M227.71,47.19c-1.7,2.07-2.43,4.12-2.09,6.32
		c0.72,4.57,2.54,8.7,5.85,12.02c2.55,2.55,5.63,3.1,8.53,1.73c3.11-1.48,4.67-4.27,4.19-7.98c-0.58-4.5-2.57-8.42-5.63-11.71
		c-1.56-1.68-3.55-2.83-6.33-2.15c0.76,1.52,1.38,2.79,2.03,4.04c1.44,2.75,2.9,5.49,4.35,8.24c0.29,0.55,0.88,1.25,0.33,1.74
		c-1.16,1.03-2.6,1.85-4.12,1.96c-1.23,0.08-1.26-1.45-1.68-2.32C231.34,55.27,230,51.25,227.71,47.19z"/>
	<path class="st0" d="M209.17,733.03c-1.28-0.47-2.46-1.01-3.7-1.32c-1.93-0.48-2.58-1.28-2.27-3.51c0.41-2.93-1.29-5.17-3.86-6.64
		c-2.7-1.55-5.58-1.7-8.09,0.06c-4.17,2.91-6.88,7.02-8,12c-0.72,3.22,0.54,5.89,3.24,7.76c2.61,1.8,5.34,1.72,8.05,0.16
		c2.82-1.61,2.82-1.62,4.74,0.78c0.72,0.9,1.39,1.85,2.07,2.75c-8.64,9.46-21.65,1.99-24.28-6.01c-0.24-0.74-0.51-1.48-0.65-2.24
		c-1.93-10.24,7.07-21.81,16.7-22.82c8.7-0.91,20.39,7.79,16.56,18.38C209.64,732.5,209.52,732.59,209.17,733.03z"/>
	<path class="st0" d="M540.57,32.38c2.3-4.5,4.93-5.8,9.45-4.66c1.24,0.31,2.49,0.74,3.63,1.34c5.26,2.75,6.37,7.02,2.82,11.81
		c-1.13,1.53-1.16,2.57-0.4,4.14c1.42,2.91,1.53,6,0.5,9.07c-2.04,6.09-7.75,9.4-14.06,8.24c-6.2-1.14-10.62-6.24-10.51-12.12
		c0.12-6.36,4.47-11.39,10.68-12.45c2.27-0.39,4.34,0.27,6.46,0.88c1.84,0.53,2.78-0.06,3.5-1.9c0.6-1.54-0.08-2.48-1.39-3.13
		c-1.28-0.63-2.99-1.67-3.98-0.6c-2.14,2.31-3.89,0.86-5.81,0.03C541.21,32.91,541.02,32.71,540.57,32.38z M551.36,49.54
		c-0.09-3.54-3-6.49-6.39-6.49c-3.84,0-7.3,3.94-7.14,8.14c0.13,3.4,3.43,6.05,7.3,5.87C548.6,56.9,551.46,53.45,551.36,49.54z"/>
	<path class="st0" d="M726.28,174.76c4.42-2.53,6.68-2.35,9.83,0.56c1.54,1.42,2.7,3.14,3.46,5.1c1.83,4.73,0.46,8.36-4.43,9.77
		c-2.54,0.73-3.31,2.37-3.69,4.17c-0.77,3.61-2.9,5.93-5.84,7.76c-4.4,2.75-9.19,2.47-13.24-0.75c-4.61-3.66-6.36-9.96-4.15-14.93
		c2.25-5.06,7.71-8.08,13.3-7.32c3.39,0.46,5.97,2.23,8.02,4.94c1.53,2.02,2.66,2.13,4.46,0.75c1.34-1.03,1.41-2.17,0.14-4.05
		c-0.64-0.95-1.45-2.5-2.51-2.17C728.02,179.67,727.81,176.64,726.28,174.76z M726.86,191.2c0.06-3.51-3.04-6.5-6.77-6.54
		c-3.57-0.04-7.4,3.26-7.54,6.49c-0.15,3.58,3.18,7.32,6.57,7.37C722.84,198.57,726.8,194.83,726.86,191.2z"/>
	<path class="st0" d="M302.61,26.7c2.92-3.07,6.04-3.93,9.56-3.39c0.88,0.14,1.78,0.35,2.61,0.7c4.35,1.85,7.09,7.95,6.28,13.9
		c-0.61,4.48-4.26,7.93-9.2,8.68c-4.98,0.76-9.8-1.94-11.86-6.81c-0.75-1.77-1.17-3.69-1.66-5.56c-0.99-3.75-2.01-7.5-2.85-11.28
		c-1.16-5.2,0.85-8.55,6-10.01c3.23-0.92,6.53-1.59,9.76-2.51c1.86-0.53,2.27,0.55,2.56,1.91c0.27,1.26,0.75,2.6-1.17,3.05
		c-2.89,0.69-5.79,1.37-8.66,2.16c-3.04,0.84-3.28,1.31-2.58,4.4C301.71,23.32,302.09,24.69,302.61,26.7z M315.47,36.69
		c0.02-1.44-0.73-4.3-1.46-5.6c-1.12-1.97-2.89-3-4.73-2.76c-2.18,0.29-4.22,2.08-4.56,4.22c-0.42,2.69,0.33,5.17,1.95,7.31
		c1.14,1.51,3.74,2.01,5.72,1.3C314.27,40.51,315.44,38.8,315.47,36.69z"/>
	<path class="st0" d="M679.21,153.59c-5.2,0.05-9.75-3.32-10.99-8.14c-1.26-4.89,1.03-10.43,5.74-12.8
		c2.35-1.18,3.67-2.42,4.31-5.16c0.95-4.07,4.11-6.57,8.22-7.29c3.76-0.66,6.38,1.55,8.44,4.41c2.47,3.42,1.91,8.12-1.54,11.18
		c-1.57,1.39-2.28,2.51-2.04,4.81C692.02,146.94,685.63,153.53,679.21,153.59z M680.68,135.99c-3,0.01-6.95,3.48-7.3,6.48
		c-0.24,2.08,0.41,3.82,2.19,5.03c1.66,1.13,3.41,1.16,5.11,0.2c2.05-1.16,3.8-2.67,4.67-4.96
		C686.58,139.53,684.11,135.98,680.68,135.99z M682.9,130.44c0.86,0.5,1.75,0.98,2.6,1.52c2.38,1.49,3.36,1.31,4.92-0.96
		c1.19-1.74,1.08-2.96-0.4-4.43c-1.49-1.49-2.6-1.59-4.37-0.18C684.37,127.4,683.02,128.46,682.9,130.44z"/>
	<path class="st0" d="M212.24,62.8c-0.56-1.04-0.91-1.73-1.3-2.38c-2.27-3.79-5.3-4.18-8.5-1.13c-0.78,0.74-1.37,1.55-1.17,2.72
		c0.14,0.84,0.76,1.77-0.36,2.4c-1.13,0.63-2.23,1.33-3.43,1.79c-0.74,0.29-1.08-0.47-1.32-1.08c-0.9-2.3-0.94-4.62,0.44-6.71
		c2.49-3.78,6-6.03,10.59-6.3c3.69-0.22,6.49,1.21,8.32,4.55c2.43,4.43,5.09,8.72,7.48,13.17c2.25,4.2,1.74,8.35-1.23,11.98
		c-2.85,3.49-6.68,4.81-11.14,3.84c-5.04-1.1-9.09-6.57-9.13-12.19c-0.04-5.26,3.4-9.12,9.2-10.33
		C211.08,63.07,211.45,62.98,212.24,62.8z M207.09,72.81c-0.04,2.06,1.88,5.81,3.59,7.01c1.84,1.3,3.75,1.3,5.75,0
		c1.85-1.2,2.8-3.23,2.31-5.29c-0.52-2.18-1.67-4.06-3.43-5.45c-1.63-1.29-3.49-1.51-5.42-0.55
		C208.11,69.43,207.2,70.85,207.09,72.81z"/>
	<path class="st0" d="M483.3,43.77c-1.85,0.05-3.82-0.53-5.7-1.47c-6.85-3.44-6.68-10.66-3.4-15.96c0.54-0.86,1.2-0.84,1.96-0.41
		c0.67,0.39,1.29,0.89,1.99,1.2c1.58,0.69,1.71,1.65,0.82,3.03c-0.41,0.63-0.63,1.42-0.81,2.17c-0.71,3.03,0.48,5.03,3.45,5.91
		c3.48,1.02,5.38,0.28,6.24-3.07c1.52-5.88,2.72-11.84,4.05-17.76c0.3-1.32-0.01-2.29-1.51-2.6c-1.45-0.3-2.17,0.32-2.46,1.71
		c-0.31,1.52-0.81,3.01-1.02,4.54c-0.32,2.37-1.9,1.62-3.19,1.36c-1.21-0.25-2.68-0.38-2.01-2.41c0.48-1.46,0.63-3.04,1.01-4.54
		c0.4-1.58-0.13-2.52-1.75-2.76c-1.42-0.22-2.74-0.69-4-1.4c-1.42-0.8-1.68-1.64-0.71-3.08c1.52-2.27,1.42-2.3,4.02-1.15
		c2.05,0.91,4.59,0.82,5.8,3.4c0.56,1.2,1.56,0,2.33-0.24c3.15-0.97,5.9-0.19,7.99,2.32c1.22,1.46,1.87,3.11,1.48,5.02
		c-1.29,6.33-2.3,12.74-4.22,18.92C492.04,41.68,488.71,43.92,483.3,43.77z"/>
	<path class="st0" d="M340.37,779.46c-3.46-0.76-7.13-1.56-10.8-2.35c-3.67-0.79-3.67-0.78-4.51,3c-0.03,0.13-0.05,0.25-0.08,0.38
		c-0.77,3.69-0.77,3.7,2.93,4.53c2.65,0.59,5.32,1.12,7.97,1.73c2.44,0.56,2.44,0.59,1.92,3.11c-0.08,0.38-0.25,0.75-0.27,1.13
		c-0.12,1.68-0.89,2.19-2.57,1.77c-3.26-0.81-6.58-1.39-9.85-2.19c-1.61-0.4-2.33-0.05-2.65,1.67c-0.63,3.43-1.55,6.82-2.22,10.24
		c-0.29,1.5-0.92,1.8-2.39,1.59c-5.13-0.73-5.15-0.67-4.07-5.64c1.91-8.85,3.82-17.71,5.75-26.56c0.63-2.87,0.67-2.92,3.47-2.32
		c6.08,1.29,12.12,2.74,18.22,3.89c2.22,0.42,2.52,1.33,1.82,3.16c-0.18,0.48-0.22,1.01-0.3,1.52
		C342.52,779.4,341.88,779.98,340.37,779.46z"/>
	<path class="st0" d="M680.57,683.28c3.14-3.31,6.33-6.68,9.52-10.04c1.84,1.07,2.93,2.51,4.41,4.1c-3.3,3.44-6.56,6.82-9.94,10.35
		c3.04,3.01,5.81,5.89,8.75,8.61c1.4,1.29,1.31,2.11,0.02,3.45c-3.31,3.44-3.28,3.54-6.71,0.16c-6.55-6.44-13.08-12.92-19.59-19.41
		c-1.9-1.9-1.86-1.96,0.05-3.9c4.17-4.25,8.35-8.49,12.52-12.74c2.34-2.38,2.34-2.38,4.72,0.05c1.88,1.93,1.9,1.94,0,3.87
		c-2.36,2.4-4.73,4.79-7.1,7.18c-0.46,0.46-0.86,0.97-1.36,1.39c-1.16,0.97-1.13,1.87,0,2.86
		C677.3,680.44,678.46,682.03,680.57,683.28z"/>
	<path class="st0" d="M338.96,40.08c-0.76-1.06-0.2-2.24-0.16-3.36c0.2-6.09,0.19-12.16-1.45-18.1c-0.56-2.01-1.27-3.95-2.76-5.48
		c-2.35-2.42-5.1-1.94-6.51,1.14c-1.13,2.46-0.96,5.07-0.57,7.63c0.72,4.75,2.21,9.29,4.17,13.68c0.79,1.76,1.56,3.53,2.35,5.3
		c-6.23,2.04-6.26,2.05-8.37-3.79c-2.11-5.84-4.22-11.69-4.03-18.05c0.06-2.08,0.24-4.13,0.97-6.1c2.76-7.45,11.73-8.97,16.83-2.8
		c3.08,3.73,4.28,8.24,4.8,12.91c0.46,4.11,0.78,8.24,0.69,12.39c-0.09,3.84-0.04,3.84-4.05,4.49
		C340.25,40.05,339.65,40.38,338.96,40.08z"/>
	<path class="st0" d="M422.26,34.75c1.49-5.1,2.88-10.2,3.41-15.48c0.29-2.85,0.41-5.68-0.24-8.51c-0.29-1.28-0.72-2.5-1.51-3.55
		c-1.62-2.12-3.77-2.24-5.63-0.3c-1.49,1.56-2.05,3.53-2.45,5.61c-1.21,6.4-0.07,12.65,1.07,18.91c0.12,0.64,0.35,1.25,0.49,1.88
		c0.25,1.09-0.04,1.78-1.31,1.72c-1.04-0.05-2.07-0.12-3.11-0.1c-1.29,0.03-1.86-0.63-2.05-1.82c-1.21-7.57-2.23-15.14-0.51-22.78
		c0.43-1.92,1.2-3.7,2.27-5.34c4.15-6.37,12.88-6.13,16.69,0.46c1.38,2.4,2.01,5.03,2.2,7.78c0.47,6.96-1.02,13.66-2.59,20.35
		c-0.37,1.57-1.26,2.15-2.8,1.9C424.95,35.29,423.61,35.54,422.26,34.75z"/>
	<path class="st0" d="M281.96,18.7c7.31-0.02,11.53,5.26,9.82,11.21c-0.46,1.61-0.6,2.52,1.07,3.41c4.17,2.24,6.05,9.71,3.8,14.21
		c-2.13,4.24-8.83,7.18-13.7,5.95c-4.49-1.13-8.34-6.85-7.7-11.37c0.1-0.72,0.39-1.25,1.14-1.33c1.16-0.13,2.32-0.2,3.48-0.26
		c0.99-0.05,1.37,0.49,1.34,1.43c-0.01,0.52,0.03,1.04,0.1,1.55c0.32,2.17,1.08,4.1,3.45,4.67c2.3,0.55,4.39-0.15,6.03-1.83
		c1.03-1.06,1.63-2.33,1.04-3.89c-0.5-1.33-0.83-2.74-1.44-4.02c-0.85-1.78-2.08-3.02-4.31-2.02c-1.52,0.68-2.4,0.19-2.82-1.46
		c-0.35-1.38-1.19-2.78,0.93-3.43c1.92-0.58,2.76-1.77,2.3-3.81c-0.5-2.25-1.88-3.6-3.88-3.72c-1.91-0.11-4.34,1.12-4.94,2.53
		c-0.44,1.04-0.12,1.97,0.29,2.97c0.57,1.43-0.74,3.07-2.94,4.05c-1.75,0.78-1.96-0.78-2.44-1.67c-1.67-3.1-1.13-6.51,1.44-9.3
		C276.43,19.97,279.5,18.77,281.96,18.7z"/>
	<path class="st0" d="M259.64,27.16c3.87,0.06,6.7,1.81,8.18,5.41c1.97,4.78,3.86,9.6,5.67,14.44c1.57,4.21,1.31,8.19-2.22,11.4
		c-3.86,3.51-8.38,4.6-13.32,2.83c-3.63-1.29-6.6-7.46-5.61-11.04c0.09-0.33,0.32-0.84,0.57-0.89c1.42-0.29,2.83-0.03,4.21,0.32
		c0.98,0.24,0.86,1.13,0.97,1.89c0.07,0.51,0.21,1.01,0.37,1.5c1.02,3.13,3.01,4.31,5.85,3.48c3.49-1.02,4.95-3.11,3.86-6.29
		c-1.77-5.13-3.75-10.19-5.81-15.21c-1.14-2.78-3.74-3.29-6.83-1.63c-2.62,1.41-3,2.92-1.42,5.75c0.35,0.63,1.39,1.16,0.8,1.97
		c-0.83,1.13-1.84,2.17-2.94,3.04c-0.55,0.44-1.16-0.26-1.64-0.67c-3.96-3.38-3.66-9.67,0.71-13.24
		C253.49,28.19,256.41,27.21,259.64,27.16z"/>
	<path class="st0" d="M565.79,71.96c3.18-3.79,6.17-7.53,8.58-11.69c1.5-2.58,2.86-5.22,3.63-8.12c0.23-0.87,0.46-1.76,0.52-2.65
		c0.14-2.03-0.19-4.01-2.28-4.93c-1.88-0.82-3.53,0.08-4.97,1.33c-1.99,1.74-3.23,4.02-4.36,6.36c-2.34,4.81-3.73,9.92-4.71,15.15
		c-0.16,0.86-0.03,1.84-0.8,2.45c-0.17,0.06-0.31,0.17-0.39,0.13c-5.58-2.08-5.63-2.1-3.99-7.7c1.35-4.59,2.7-9.19,4.97-13.44
		c1.67-3.12,3.69-5.94,6.63-7.99c3.25-2.27,6.68-2.64,10.25-0.81c3.44,1.76,5.04,4.67,5.2,8.47c0.18,4.28-1.15,8.16-3.04,11.9
		c-2.23,4.41-5.05,8.43-8.02,12.37c-1.73,2.29-1.76,2.3-4.37,1.05C567.73,73.39,566.69,73.12,565.79,71.96z"/>
	<path class="st0" d="M759.73,305.49c0.06-6.66,5.3-11.2,11.76-10.14c0.94,0.15,2.4,0.13,1.89,1.72c-0.46,1.44,0.51,3.65-1.92,4.13
		c-1.01,0.2-2.09,0.06-3.08,0.31c-2.56,0.64-3.8,2.64-3.41,5.26c0.46,3.08,2.04,4.73,4.65,4.75c0.9,0.01,1.82-0.1,2.69-0.33
		c4.62-1.21,9.22-2.51,13.85-3.71c1.77-0.46,3.18-1.19,3.33-3.22c0.16-2.14-0.15-4.25-1.91-5.64c-1.35-1.07-2.89-0.6-4.38,0.15
		c-1.57,0.8-3.12-0.15-4.25-2.31c-0.86-1.64,0.62-2.08,1.43-2.67c3.47-2.52,8.16-1.97,11.19,1.45c3.03,3.42,3.97,7.51,2.79,11.93
		c-0.83,3.1-2.94,5.07-6.09,5.89c-4.87,1.27-9.72,2.68-14.62,3.84C765.54,318.81,759.65,313.93,759.73,305.49z"/>
	<path class="st0" d="M82.67,192.89c1.12,1.12,1.87,2.02,2.76,2.75c2.54,2.08,5.05,1.81,7.1-0.7c2.3-2.82,2.05-5.63-0.71-7.69
		c-0.83-0.62-1.69-1.21-2.61-1.68c-2.49-1.29-3.24-1.3-4.96,0.91c-1.25,1.59-2.12,1.31-3.5,0.36c-1.38-0.95-1.95-1.63-0.86-3.36
		c1.25-1.99,0.56-3.49-1.58-4.76c-2.2-1.31-4.51-0.68-6,1.62c-1.6,2.46-1.48,4.07,0.96,5.54c1.32,0.79,1.59,1.45,1.1,2.72
		c-0.41,1.07-0.76,2.15-1.13,3.2c-5.44-1.42-7.36-4.06-6.89-9.22c0.44-4.81,4.04-9.05,8.46-9.96c4.27-0.88,8.09,1.03,9.73,5.09
		c0.63,1.56,1.03,2.61,3.16,2.26c4.86-0.79,10.64,4.26,11.51,8.61c0.99,4.98-2.49,11.37-7.31,13.33c-4.14,1.68-10.39-0.46-12.7-4.32
		c-0.51-0.85-0.29-1.43,0.39-2C80.58,194.76,81.53,193.9,82.67,192.89z"/>
	<path class="st0" d="M400.13,4.26c0.08-0.65,0.26-1.17,0.2-1.66c-0.24-2,0.55-2.7,2.6-2.69c3.26,0.01,3.38-0.07,3.44,3.05
		c0.13,6.74,0.19,13.48,0.27,20.23c0.01,0.52-0.03,1.04-0.05,1.56c-0.18,4.12-1.26,7.78-5.51,9.44c-4.6,1.79-9.17,1.8-13.3-1.25
		c-3.04-2.25-4.28-8.78-2.53-12.15c0.44-0.84,0.94-1.14,1.84-0.76c0.47,0.2,0.99,0.3,1.5,0.41c1.78,0.39,2.4,1.1,1.99,3.22
		c-0.78,4.03,1.38,6.48,5.12,6.47c2.77,0,4.39-1.27,4.75-4.08c0.61-4.65,0.2-9.33-0.1-13.98c-0.15-2.35-1.74-3.69-4.02-4.09
		c-2.59-0.45-3.49,0.12-4.18,2.68c-0.22,0.82,0.14,2.01-1.1,2.2c-1.39,0.21-2.87,0.45-4.2-0.17c-0.85-0.4-0.52-1.37-0.43-2.1
		c0.59-4.69,4.97-7.88,9.87-7.18C397.55,3.58,398.78,3.95,400.13,4.26z"/>
	<path class="st0" d="M17.89,294.16c-0.48-0.31-0.68-0.49-0.91-0.56c-0.95-0.32-2.34-0.2-2.61-1.35c-0.37-1.55,0.48-3.02,1.02-4.45
		c0.25-0.66,1.09-0.55,1.73-0.36c7.92,2.39,16.12,3.89,23.83,6.92c6.3,2.48,8.01,9.57,4.31,16.05c-3.03,5.3-9.59,6.75-14.78,3.28
		c-1.01-0.67-1.93-1.24-1.09-2.76c1.37-2.47,2.15-3.05,3.89-2.38c4.45,1.7,7.04,0.87,8.17-2.63c1.13-3.51-0.17-5.48-4.77-6.9
		c-3.46-1.06-6.96-2.01-10.47-2.87c-2.41-0.59-4.19,0.19-5.38,2.06c-1.63,2.57-1.29,3.95,1.46,5.48c0.84,0.47,1.75,0.83,1.32,1.97
		c-0.49,1.29-0.32,2.88-1.52,3.85c-0.46,0.37-0.97-0.06-1.44-0.25c-4.42-1.74-6.52-6.29-4.88-10.79
		C16.29,297.05,17.11,295.73,17.89,294.16z"/>
	<path class="st0" d="M113.99,171.57c-0.06,4.68-4.81,10.19-10.34,11.06c-3.55,0.56-9.78-3.35-10.52-6.63
		c-0.07-0.33-0.03-0.93,0.17-1.04c1.22-0.71,2.45-1.48,3.78-1.91c1.08-0.35,1.46,0.88,1.98,1.54c3.18,4.05,7.21,2.32,8.82-0.78
		c1.14-2.22,1.19-4.05-0.69-5.63c-4.45-3.74-9.04-7.34-13.72-10.8c-2.03-1.51-4.63-0.27-6.26,2.59c-1.37,2.41-0.97,3.96,1.54,5.47
		c0.96,0.57,2.14,0.66,1.9,2.35c-0.48,3.47-1.65,4.17-4.84,2.6c-3.48-1.72-5.3-5.84-4.21-9.9c0.99-3.68,3.29-6.47,6.6-8.27
		c3.09-1.68,6.25-1.55,9.12,0.65c4.21,3.23,8.41,6.47,12.54,9.81C112.36,164.69,114.09,167.22,113.99,171.57z"/>
	<path class="st0" d="M587.09,83.53c1.36-1.52,2.57-2.85,3.75-4.19c3.43-3.9,6.58-7.99,8.84-12.71c1.02-2.13,1.8-4.31,1.55-6.72
		c-0.34-3.36-2.78-4.67-5.81-3.11c-1.89,0.97-3.25,2.52-4.43,4.26c-3.31,4.89-5.28,10.35-6.91,15.96c-0.36,1.23-0.66,2.48-0.96,3.65
		c-0.4,0.08-0.69,0.24-0.86,0.16c-5.07-2.39-5.05-2.39-3.23-7.71c1.43-4.17,2.99-8.28,5.18-12.11c1.81-3.18,4.01-6.04,7.1-8.11
		c3.4-2.28,6.94-2.77,10.6-0.7c3.51,1.98,4.93,5.11,4.84,9.08c-0.07,3.32-1.1,6.36-2.58,9.27c-2.72,5.35-6.55,9.92-10.38,14.48
		c-1,1.18-1.92,1.56-3.26,0.62C589.5,84.94,588.4,84.33,587.09,83.53z"/>
	<path class="st0" d="M24.07,341.51c8.11,0.04,13.35,5.17,12.87,12.2c-0.41,6-5.58,10.76-11.54,10.13c-7.6-0.8-15.15-1.99-22.72-3
		c-1.43-0.19-2.34-0.55-2.02-2.45c0.58-3.45,0.53-3.7,2.82-3.42c6.55,0.82,13.09,1.76,19.63,2.68c1.55,0.22,3.07,0.49,4.62,0.07
		c2.56-0.7,3.89-2.26,3.96-4.63c0.07-2.37-1.17-4.25-3.48-5.06c-2.94-1.03-5.85-1.01-8.64,0.55c-2.23,1.25-4.63,1.6-7.13,1.44
		c-2.66-0.17-2.89-0.48-2.51-3.06c0.42-2.83,0.42-2.91,3.34-2.89c2,0.01,3.86-0.33,5.57-1.37C20.58,341.66,22.5,341.47,24.07,341.51
		z"/>
	<path class="st0" d="M602.04,727.51c0.25-0.44,0.28-0.58,0.38-0.66c5.73-4.41,5.72-4.4,12.2-1.3c2.55,1.22,5.11,2.41,8,3.77
		c0.39-2.51-0.02-4.63-0.16-6.75c-0.13-1.94-0.11-3.89-0.36-5.81c-0.29-2.17,0.23-3.75,2.34-4.72c1.36-0.63,2.43-1.85,3.87-2.24
		c0.98,0.84,0.63,1.8,0.65,2.64c0.11,4.92,0.43,9.85,0.18,14.75c-0.2,4.12,0.9,7.56,3.4,10.75c1.43,1.83,2.58,3.88,3.92,5.78
		c0.75,1.06,0.71,1.87-0.43,2.55c-0.22,0.13-0.43,0.29-0.65,0.43c-4.68,3-3.87,3.15-6.22-1.12c-3.4-6.18-8.05-10.45-14.85-12.65
		C610.16,731.59,606.28,729.42,602.04,727.51z"/>
	<path class="st0" d="M363.7,9.79c0.78,3.19,2.06,6.16,4.35,8.8c2.55,2.95,3.31,10.44,0.03,14.64c-2.87,3.67-7.51,5.39-12.12,4.17
		c-4.08-1.07-7.26-4.77-7.79-9.22c-0.86-7.2-1.55-14.42-2.51-21.61c-0.28-2.06,0.22-2.72,2.25-2.93c3.18-0.33,3.21-0.48,3.59,2.6
		c0.76,6.17,1.49,12.34,2.17,18.52c0.16,1.42,0.29,2.84,0.84,4.17c1.04,2.55,3.15,3.93,5.37,3.58c2.53-0.39,4.31-2.3,4.48-5.13
		c0.17-2.95-0.64-5.68-2.74-7.84c-1.91-1.96-2.57-4.43-3.21-6.95c-0.46-1.83,0.15-2.68,2.05-2.69C361.48,9.9,362.48,9.41,363.7,9.79
		z"/>
	<path class="st0" d="M652.32,95.95c1.59,0.62,2.66,1.93,3.83,2.9c0.33,1.05-0.3,1.73-0.77,2.18c-1.81,1.75-1.82,3.91-2.1,6.21
		c-0.68,5.45-4.17,9.07-9.06,11.08c-3.81,1.57-7.38,0.29-10.42-2.34c-3.99-3.45-5.13-9.45-2.01-13.7
		c4.74-6.46,9.95-12.58,14.93-18.86c0.73-0.93,1.42-0.98,2.25-0.21c0.28,0.26,0.6,0.49,0.9,0.73c2.34,1.86,2.37,1.88,0.58,4.14
		c-3.94,4.96-7.93,9.9-11.87,14.86c-0.72,0.91-1.46,1.83-2,2.85c-1.37,2.6-0.97,5.11,0.95,6.67c2.15,1.75,4.73,1.6,7.02-0.5
		c2.18-2,3.37-4.47,3.66-7.47C648.58,100.63,649.34,99.26,652.32,95.95z"/>
	<path class="st0" d="M164.4,78.2c2.93,4.1,5.93,8.3,8.93,12.5c1.5,2.11,2.99,4.23,4.51,6.32c0.93,1.27,2.09,2.27,3.59,2.86
		c1.91,0.76,3.53,0.34,5-1.01c1.75-1.61,2.06-3.63,1.22-5.68c-1.16-2.84-3.08-5.15-6.13-6.09c-3.44-1.07-5.67-3.43-7.52-6.22
		c0.25-0.81,0.82-1.13,1.33-1.51c2.67-1.99,2.7-2.02,5.17,0.44c1.41,1.41,3.12,2.18,4.95,2.91c6.19,2.48,9.45,9.63,7.29,15.64
		c-2.83,7.9-13.33,9.98-18.53,3.4c-4.81-6.08-9.05-12.6-13.6-18.89c-0.91-1.26-0.74-2.04,0.54-2.8
		C162.12,79.48,162.93,78.59,164.4,78.2z"/>
	<path class="st0" d="M611.47,97.28c-7.95,0.14-13.91-8.62-10.06-15.53c3.95-7.08,8.77-13.68,13.19-20.5c0.65-1,1.35-0.99,2.23-0.34
		c0.62,0.46,1.27,0.9,1.94,1.29c1.16,0.67,1.26,1.43,0.51,2.53c-1.68,2.46-3.27,4.97-4.9,7.46c-2.13,3.25-4.25,6.5-6.38,9.74
		c-0.79,1.2-1.5,2.43-1.83,3.83c-0.54,2.26,0.25,4.29,2.05,5.43c1.88,1.19,4.48,1.12,6.14-0.42c2.48-2.3,3.91-5.17,3.7-8.62
		c-0.17-2.87,0.86-5.3,2.22-7.7c0.67-1.18,1.39-1.39,2.47-0.57c0.62,0.47,1.27,0.89,1.94,1.29c0.97,0.57,1.17,1.28,0.56,2.24
		c-1.54,2.39-1.62,5.05-1.73,7.82C623.24,91.68,617.6,97.17,611.47,97.28z"/>
	<path class="st0" d="M777.71,319c4.28-0.06,7.35,1.46,9.57,4.76c1.85,2.74,4.84,2.45,6.15-0.59c0.71-1.65,0.96-3.52,2.77-4.51
		c1.59-0.87,2.28-0.63,2.75,1.07c0.52,1.87,1.16,3.73-0.79,5.3c-0.45,0.36-0.63,1.13-0.78,1.75c-0.71,2.86-2.75,4.06-5.45,4.02
		c-2.04-0.03-2.78,0.65-3.36,2.67c-1.4,4.87-6.05,7.76-11.77,7.85c-5.04,0.07-9.15-2.7-10.83-7.31c-2.54-6.96,1.97-13.84,9.76-14.89
		C776.49,319.03,777.28,319.03,777.71,319z M776.24,335.47c1.43,0.08,3.06-0.3,4.59-1.07c2.05-1.04,3.22-3.08,2.95-5.01
		c-0.34-2.42-2.15-4.23-4.6-4.59c-1.88-0.28-3.61,0.33-5.28,1.01c-2.68,1.09-3.69,3.18-3.1,5.94
		C771.31,334.19,773.02,335.42,776.24,335.47z"/>
	<path class="st0" d="M710.85,631.11c-0.31,0.21-0.8,0.59-0.46,0.84c2.49,1.77,1.34,3.27-0.15,4.94c-1.37,1.52-2.56,3.21-3.9,4.91
		c2.09,2.4,4.6,4.01,6.89,5.87c4.43,3.59,8.88,7.16,13.42,10.61c1.59,1.2,2,2.18,0.52,3.7c-0.99,1.01-1.84,2.16-2.99,3.53
		c-4.21-3.32-8.36-6.57-12.5-9.84c-2.54-2.01-5.07-4.04-7.61-6.05c-2.4-1.9-2.41-1.89-4.44,0.6c-1.06,1.31-2.14,2.6-3.14,3.96
		c-0.86,1.17-1.71,1.43-2.85,0.35c-0.93-0.88-1.95-1.67-3.08-2.64c5.4-6.84,10.7-13.53,15.98-20.23c0.75-0.96,1.49-1.34,2.57-0.41
		c0.51,0.44,1.25,1.15,1.77-0.09C710.89,631.15,710.85,631.11,710.85,631.11z"/>
	<path class="st0" d="M26.14,316.43c4.27,0.09,8.52,1.35,11.96,4.71c5.17,5.05,3.82,13.53-2.72,16.55
		c-5.2,2.39-10.32,1.77-15.28-0.89c-1.47-0.79-2.05-1.59-1-3.33c1.79-2.94,1.69-3.07,4.96-1.62c2.3,1.03,4.66,1.55,7.16,1.37
		c2.56-0.18,4.16-1.54,4.67-3.89c0.45-2.09-0.37-3.85-2.67-5.06c-5.11-2.69-10.2-2.71-15.02,0.69c-2.85,2.01-5.94,3.2-9.4,3.11
		c-1.08-0.03-2.81,0.49-3.01-1.5c-0.25-2.38,0.96-4.19,2.96-4.29c2.97-0.16,5.46-1.45,7.85-3.06
		C19.35,317.37,22.4,316.46,26.14,316.43z"/>
	<path class="st0" d="M23.42,271.69c2.97,0.19,5.53-1.06,8.14-2.22c6.6-2.93,14.79-1.25,19.64,3.89c2.94,3.12,3.81,6.68,2.51,10.73
		c-1.28,3.99-4.26,6.1-8.22,6.79c-4.99,0.88-9.46-0.49-13.5-3.49c-1.32-0.98-1.59-1.92-0.38-3.15c0.36-0.37,0.67-0.79,0.94-1.23
		c0.83-1.37,1.73-1.67,3.12-0.59c1.96,1.52,4.23,2.47,6.68,2.95c3.18,0.62,5.4-0.45,6.31-3.02c0.9-2.54,0.12-4.37-2.7-6.08
		c-4.53-2.74-9.19-3.23-14.02-0.76c-3.29,1.69-6.7,2.71-10.46,1.78c-2.54-0.63-2.56-0.59-1.77-3.02
		C20.56,271.69,20.56,271.69,23.42,271.69z"/>
	<path class="st0" d="M669.13,115.18c-0.25-3.89,0.69-7.42,3.08-10.54c0.69-0.9,1.28-1,2.23-0.3c2.37,1.76,2.62,2.48,1.41,5.25
		c-1.12,2.57-1.09,5.27-1.04,8c0.12,7.24-4.58,14.03-11.34,16.51c-3.97,1.46-7.6,1.07-10.84-1.84c-3.27-2.93-3.94-6.58-2.84-10.61
		c1.25-4.58,4.05-8,8.14-10.42c1.54-0.91,2.44-0.81,3.38,0.89c1.56,2.86,1.71,2.83-1.02,4.77c-2.04,1.45-3.75,3.19-4.94,5.38
		c-1.25,2.3-0.96,4.46,0.68,6.04c1.81,1.75,3.56,1.96,5.97,0.51C667.14,125.74,669.55,121.18,669.13,115.18z"/>
	<path class="st0" d="M783.92,349.45c-1.94-0.15-4.24,0.15-6.39,1.17c-2.16,1.03-3.13,2.81-2.85,5c0.31,2.4,1.67,3.71,4.45,4.04
		c5.55,0.67,10.24-0.89,13.63-5.54c2.2-3.02,4.88-5.35,8.59-6.22c0.99-0.23,2.29-1.09,2.8,0.8c0.62,2.31,0.34,4.14-1.07,4.66
		c-3.19,1.19-5.26,3.59-7.32,6.13c-4.82,5.92-13.55,7.77-20.42,4.79c-6.61-2.87-8.36-12.48-2.22-17.32
		c4.12-3.25,8.78-4.26,13.86-3.48c2.37,0.36,2.53,0.75,2.08,3.09C788.48,349.57,788.48,349.57,783.92,349.45z"/>
	<path class="st0" d="M732.28,225.06c-8.34,0-13.12-7.89-9.14-15.19c2.43-4.46,6.28-7.12,11.18-8.26c1.43-0.33,2.7-0.51,3.12,1.66
		c0.64,3.33,0.83,3.39-1.51,4.1c-2.64,0.8-5.08,1.91-7.08,3.84c-1.97,1.9-2.36,4.18-1.14,6.3c1.17,2.03,2.96,2.76,5.7,2.01
		c5.23-1.44,8.9-4.58,10.36-9.97c0.68-2.5,1.43-4.97,3.13-7.03c0.99-1.2,2.1-2.28,3.42-3.13c0.79-0.5,1.34-0.33,1.94,0.45
		c1.84,2.39,1.92,3.26-0.1,5.46c-2.2,2.39-2.84,5.46-3.84,8.38C746.02,220.3,739.29,225.07,732.28,225.06z"/>
	<path class="st0" d="M61.96,622.2c-0.23-0.4-0.43-0.9-0.75-1.29c-3.32-4.13-3.27-4.5,1.33-7.39c7.67-4.8,15.35-9.6,23.04-14.36
		c2.29-1.42,2.32-1.37,3.79,0.91c0.35,0.54,0.61,1.16,1.03,1.64c1.45,1.68,0.67,2.59-0.93,3.57c-8.49,5.21-16.92,10.5-25.38,15.75
		C63.55,621.36,62.98,621.64,61.96,622.2z"/>
	<path class="st0" d="M224.33,730.53c-2.29,3.92-4.5,7.71-6.71,11.5c-3.25,5.59-6.54,11.17-9.73,16.79
		c-0.75,1.32-1.37,1.49-2.74,0.77c-4.66-2.46-4.69-2.39-1.99-7.03c4.56-7.83,9.1-15.66,13.67-23.48c1.34-2.3,1.37-2.28,3.78-0.94
		c0.79,0.44,1.58,0.89,2.36,1.35C223.29,729.71,223.58,729.97,224.33,730.53z"/>
	<polygon class="st0" points="753.69,284.88 753.57,284.79 753.67,284.85 	"/>
</g>
</svg>
