<?xml version="1.0" encoding="utf-8"?>
<!-- Generator: Adobe Illustrator 26.1.0, SVG Export Plug-In . SVG Version: 6.00 Build 0)  -->
<svg version="1.1" id="Layer_1" xmlns="http://www.w3.org/2000/svg" xmlns:xlink="http://www.w3.org/1999/xlink" x="0px" y="0px"
	 viewBox="0 0 642.18 640.37" style="enable-background:new 0 0 642.18 640.37;" xml:space="preserve">
<style type="text/css">
	.st0{fill:#025992;}
	.st1{fill:#AF141A;}
</style>
<g>
	<path class="st0" d="M233.26,450.15c-0.57,20.08-1.14,40.17-1.72,60.25c-0.11,3.82-0.13,3.92-3.86,3.92
		c-27.16,0.03-54.31,0.03-81.47,0.01c-3.84,0-4.02-0.24-5.08-4.44c-5.18-20.65-10.39-41.3-15.46-61.98
		c-0.73-2.96-2.05-5.29-4.23-7.41c-24.91-24.33-50.08-48.41-74.53-73.2c-13.8-13.99-26.74-28.72-38.64-44.4
		c-5.38-7.09-7.59-14.86-7.98-23.49c-0.69-15.35-0.15-30.68,1.18-45.97c1.29-14.81,2.65-29.63,4.25-44.41
		c1.46-13.56,3.17-27.1,4.97-40.62c2.21-16.56,4.45-33.11,7.01-49.62c4.03-25.89,8.34-51.73,12.54-77.59
		c0.59-3.63,1.26-7.25,1.85-10.88c0.24-1.46,0.86-2.27,2.46-1.78c9.42,2.88,18.64,6.11,26.19,12.85c5.15,4.59,8.22,10.22,9.38,16.95
		c4.53,26.28,8.96,52.57,12.26,79.04c3.23,25.86,6.06,51.77,8.88,77.68c0.46,4.2-0.44,7.21-3.7,10.08
		c-6.24,5.46-11.87,11.57-16.45,18.54c-2.53,3.85-4.67,7.87-5.73,12.45c-0.91,3.95-0.46,7.53,1.39,11.11
		c13.01,25.13,27.81,49.09,45.97,70.87c1.87,2.24,3.62,4.58,5.58,6.73c3.32,3.65,7.26,4.1,10.55,1.38c3.14-2.59,3.4-6.77,0.39-10.66
		c-7.12-9.23-14.65-18.14-21.41-27.65c-10.24-14.4-19.04-29.67-27.28-45.27c-1.37-2.59-1.38-4.92,0.05-7.39
		c1.31-2.25,2.67-4.47,4.31-6.51c3.48-4.31,7.5-8.11,11.33-12.08c2.53-2.62,4-2.69,6.88-0.86c28.28,17.95,55.44,37.38,79.7,60.62
		c12.67,12.14,24.29,25.16,33.32,40.31c9.14,15.32,15.4,31.68,17.46,49.48c1.13,9.79,0.51,19.62,0.36,29.43
		c-0.17,11.5-0.57,23-0.87,34.5C233.16,450.15,233.21,450.15,233.26,450.15z"/>
	<path class="st0" d="M409.45,450.85c-0.47-15.63-0.42-31.28-1.24-46.91c-1.39-26.63,6.98-50.41,21.3-72.39
		c11.58-17.78,26.61-32.44,42.39-46.38c20.98-18.53,43.86-34.46,67.6-49.21c3.4-2.11,3.6-2.13,6.18,0.67
		c4.58,4.96,9.14,9.93,13.6,14.99c4.16,4.72,4.4,7.42,1.43,12.85c-13.66,24.91-28.28,49.18-47.21,70.57
		c-0.61,0.68-1.17,1.43-1.61,2.23c-1.75,3.22-1.01,6.88,1.77,9.1c2.74,2.19,6.04,2.26,8.83-0.14c1.73-1.49,3.18-3.31,4.69-5.05
		c15.29-17.54,27.63-37.1,39.01-57.31c2.71-4.81,5.42-9.61,8.28-14.33c3.44-5.7,3.7-11.49,1.19-17.59
		c-2.48-6.04-6.16-11.28-10.41-16.16c-3.53-4.05-7.26-7.92-11.33-11.43c-2.58-2.21-3.38-4.74-2.98-8.14
		c2.23-19.18,4.11-38.4,6.43-57.56c1.97-16.27,4.28-32.51,6.62-48.73c2.21-15.31,4.58-30.61,7.05-45.88
		c0.63-3.92,1.73-7.77,2.87-11.58c1.26-4.21,3.82-7.63,7.08-10.56c7.61-6.87,16.88-10.39,26.48-13.3c2.65-0.8,2.71,1.13,3,2.77
		c1.59,9.06,3.16,18.11,4.71,27.18c4.61,27.04,8.68,54.16,12.64,81.3c3.31,22.74,6.33,45.53,8.73,68.39
		c1.99,18.91,4.13,37.8,4.87,56.81c0.54,13.78,1.48,27.56-0.17,41.35c-0.62,5.21-2.43,9.75-5.4,13.96
		c-7.08,10.04-14.96,19.44-23.25,28.5c-28.17,30.8-57.8,60.16-88.49,88.44c-4.38,4.04-6.97,8.74-8.37,14.42
		c-4.79,19.49-9.72,38.94-14.61,58.4c-1.01,4.02-1.19,4.21-5.23,4.22c-27.3,0.03-54.6,0.03-81.91,0.02c-3.36,0-3.36-0.07-3.43-3.72
		C410.2,490.71,409.82,470.78,409.45,450.85z"/>
	<path class="st1" d="M307.36,164.45c-6.44,0.65-11.5,2.45-16.6,3.97c-14.19,4.2-27.75,9.77-39.83,18.51
		c-11.5,8.32-19.43,19.09-22.06,33.26c-2.04,10.98-0.21,21.67,3.1,32.18c3.89,12.37,9.85,23.76,16.57,34.78
		c0.64,1.05,1.32,2.07,1.97,3.11c0.78,1.25,1.17,2.53,0.1,3.81c-1.05,1.25-2.31,1.19-3.75,0.68c-5.35-1.9-10.64-3.92-15.68-6.56
		c-19.13-10-32.79-24.82-38.4-45.87c-7.35-27.55-0.57-52.02,18.59-72.79c17.85-19.35,40.65-25.84,66.38-23.52
		c8.44,0.76,16.6,2.84,24.63,5.48c1,0.33,2,0.84,3.07,0.32c0.23-0.7-0.12-1.18-0.6-1.57c-14.22-11.8-29.09-22.56-46.62-29.03
		c-11.76-4.34-23.72-6.08-36.06-2.56c-11.5,3.28-20.45,10.25-27.96,19.28c-8.01,9.62-13.97,20.49-18.97,31.92
		c-1.35,3.09-2.56,6.23-3.85,9.35c-0.29,0.71-0.55,1.45-0.97,2.07c-0.68,1-1.37,2.18-2.82,2.03c-1.58-0.16-2.31-1.3-2.77-2.71
		c-5.66-17.42-8.13-35.12-1.91-52.8c9.66-27.48,29.23-44.06,57.82-49.47c31.96-6.05,62.17,7.56,79.87,35.33
		c4.57,7.16,7.87,14.88,10.82,22.79c0.84,2.24,1.56,4.56,2.91,6.63c1.47-0.82,1.29-2.02,1.32-2.96c0.63-18.15,0.03-36.2-5.26-53.77
		c-3.62-11.99-9.5-22.58-19.66-30.37c-9.78-7.51-21.13-10.22-33.14-10.72c-14.56-0.61-28.67,2.15-42.62,6.04
		c-2.06,0.57-4.14,1.25-6.25,1.44c-3.1,0.27-4.13-1.52-2.77-4.37c0.13-0.27,0.33-0.52,0.5-0.77c11.26-16.6,25.41-29.54,45.32-34.75
		c28.79-7.54,53.66,0.2,73.86,21.35c22.69,23.76,26.57,51.87,15.79,82.36c-3.18,9-7.96,17.24-13.42,25.07
		c-0.6,0.86-1.48,1.58-1.57,2.74c-0.01,0.13,0.11,0.26,0.17,0.4c0.64,0.47,1.17-0.02,1.61-0.32c15.46-10.68,30.04-22.34,41.27-37.66
		c5.97-8.14,10.36-17.01,11.84-27.12c1.76-12.02-0.95-23.12-6.88-33.58c-7.16-12.63-17.27-22.61-28.38-31.69
		c-2.97-2.43-6.03-4.75-9.01-7.16c-0.95-0.77-1.93-1.56-2.63-2.54c-1.6-2.2-1-3.74,1.72-4.24c3.49-0.64,7.04-0.46,10.56-0.34
		c14.66,0.51,28.56,3.88,41.06,11.79c19.1,12.09,29.72,29.85,32.94,51.87c3.46,23.63-2.9,44.73-18.83,62.63
		c-12.39,13.91-28.31,21.7-46.36,25.42c-6.02,1.24-12.09,2.04-18.25,2.08c-0.92,0.01-1.84,0.04-2.75,0.13
		c-1.01,0.11-1.69,0.64-1.84,1.72c-0.13,0.99,0.06,1.85,1.02,2.33c0.69,0.34,1.41,0.63,2.14,0.84c15.51,4.47,31.19,7.98,47.45,8.05
		c9.27,0.04,18.38-0.86,27.02-4.52c16.51-6.98,26.02-19.9,30.82-36.68c4.09-14.29,5.03-28.95,4.69-43.74
		c-0.03-1.23-0.08-2.46-0.02-3.68c0.07-1.54,0.16-3.28,1.78-3.96c1.64-0.69,2.88,0.45,3.96,1.6c0.1,0.11,0.21,0.22,0.31,0.34
		c13.47,15.19,22.17,32.56,21.99,53.17c-0.27,30.45-14.93,52.75-41.58,66.55c-25.71,13.31-51.41,11.66-76.22-3.39
		c-9.27-5.62-17.29-12.67-24.46-20.76c-1.15-1.3-1.95-3.22-4.14-3.27c-1.11,1.64-0.11,3.08,0.55,4.33
		c9.34,17.67,19.61,34.68,35.2,47.71c7.9,6.6,16.86,11,27.21,12.5c10.91,1.59,21.04-0.86,30.82-5.31
		c13.3-6.05,24.49-15.09,34.95-25.11c1.99-1.91,3.94-3.87,5.96-5.75c1.12-1.04,2.33-2.29,4.02-1.63c1.97,0.77,1.85,2.63,1.69,4.33
		c-0.78,8.27-2.29,16.39-5.03,24.25c-10.68,30.63-39.58,49.92-72.05,48.91c-32.59-1.01-66.27-23.17-73.88-65.02
		c-1.88-10.34-2.19-20.72-0.93-31.15c0.12-1.03,0.02-2.1,0.02-3.13c-0.86-0.11-1.11,0.51-1.37,1.02
		c-7.46,15.02-13.71,30.46-16.5,47.12c-1.36,8.08-1.66,16.16-0.11,24.25c2.81,14.73,11,25.73,23.47,33.73
		c11,7.05,23.17,11.12,35.83,13.85c4.94,1.07,9.95,1.84,14.92,2.74c0.6,0.11,1.23,0.11,1.82,0.26c1.88,0.49,4.32,0.51,4.66,2.99
		c0.31,2.2-1.81,3.02-3.33,3.96c-17.75,10.97-36.84,15.72-57.61,11.88c-23.44-4.33-39.78-18.36-50.85-38.77
		c-16.85-31.05-10.26-68.23,16.09-93.43c6.12-5.86,12.84-10.93,20.08-15.32C304.33,167.08,305.75,166.51,307.36,164.45z"/>
	<path class="st0" d="M207.04,587.4c5.68,0,11.35-0.02,17.03,0.01c3.38,0.02,3.45,0.05,3.46,3.16c0.03,10.74-0.08,21.47,0.07,32.21
		c0.04,2.57-1.22,3.95-3.01,5.23c-9.18,6.52-19.39,10.45-30.56,11.76c-6.42,0.75-12.84,0.63-19.22-0.67
		c-16.98-3.45-28.35-13.34-33.55-29.85c-4.63-14.72-4.32-29.42,2.58-43.43c7.15-14.51,19.14-22.3,35.24-23.77
		c8.16-0.74,16.26-0.43,24.13,2.01c11.41,3.54,18.74,11.23,22.27,22.58c0.89,2.86,0.74,3.16-2.13,3.74
		c-4.5,0.91-9.08,1.49-13.55,2.53c-2.15,0.5-2.9-0.09-3.71-2.01c-2.98-7.06-8.41-11.15-16-12.23c-16.83-2.4-29.27,7.04-31.31,23.93
		c-0.79,6.56-0.67,13.16,0.81,19.67c3.57,15.72,16.76,24.14,32.51,20.66c4.83-1.07,9.28-3.1,13.49-5.71
		c1.69-1.05,2.72-2.3,2.51-4.48c-0.19-1.98-0.19-3.99-0.03-5.98c0.21-2.55-0.98-3.1-3.28-3.05c-5.37,0.13-10.74,0-16.1,0.05
		c-1.6,0.02-2.67-0.26-2.64-2.19c0.06-3.99,0.05-7.98,0-11.96c-0.03-1.88,0.94-2.28,2.59-2.26
		C194.77,587.43,200.91,587.4,207.04,587.4z"/>
	<path class="st0" d="M498.63,591.01c0,14.57,0.01,29.14-0.01,43.72c-0.01,4-0.05,4.01-3.98,4.04c-3.68,0.02-7.36,0.02-11.04,0.01
		c-4.33-0.01-4.36-0.02-4.37-4.2c-0.02-10.43,0-20.86,0-31.29c0-0.92,0.02-1.84-0.01-2.76c-0.1-3.33-0.1-3.44-3.24-3.45
		c-10.28-0.05-20.55-0.05-30.83-0.01c-3.14,0.01-3.21,0.11-3.22,3.45c-0.04,11.35,0,22.7-0.02,34.05c-0.01,4.17-0.03,4.18-4.32,4.2
		c-4.14,0.02-8.29-0.07-12.42,0.04c-1.98,0.05-2.85-0.63-2.66-2.63c0.07-0.76,0.02-1.53,0.02-2.3c-0.01-28.84-0.02-57.67-0.04-86.51
		c0-4.04,0-4.06,3.93-4.08c4.14-0.02,8.29,0.1,12.42-0.07c2.49-0.1,3.13,0.92,3.11,3.23c-0.09,9.2-0.04,18.41-0.04,27.61
		c0,1.07-0.02,2.15,0,3.22c0.08,3.43,0.09,3.48,3.65,3.49c9.97,0.03,19.94,0.03,29.91,0c3.67-0.01,3.72-0.06,3.74-3.88
		c0.03-9.66,0.04-19.33,0-28.99c-0.02-5.4,0.19-4.64,4.83-4.62c3.68,0.01,7.36-0.02,11.04,0.01c3.47,0.03,3.53,0.06,3.54,3.54
		c0.03,12.42,0.01,24.85,0.01,37.27C498.63,586.41,498.63,588.71,498.63,591.01z"/>
	<path class="st0" d="M369.63,640.36c-7.35-0.11-13.61-0.58-19.59-2.8c-11.18-4.16-17.52-12.52-20.13-23.86
		c-1.65-7.16-1.91-5.85,4.76-6.8c3.34-0.47,6.71-0.65,10.06-1.05c1.95-0.23,3.31,0.1,3.54,2.39c0.09,0.9,0.49,1.76,0.79,2.63
		c2.4,7.21,7.25,11.44,14.84,12.67c4.34,0.7,8.56,0.38,12.75-0.69c3.21-0.82,5.88-2.62,7.92-5.23c4.23-5.42,2.9-11.92-3.22-15.06
		c-5.22-2.68-11.03-3.63-16.66-5.08c-5.8-1.49-11.57-3.03-16.98-5.65c-6.92-3.35-11.99-8.44-14.31-15.93
		c-3.38-10.9,0.8-22.36,10.4-28.51c5.56-3.57,11.76-5.04,18.29-5.47c7.72-0.51,15.36-0.24,22.7,2.38
		c10.82,3.86,16.99,11.64,18.58,22.99c0.45,3.17,0.22,3.31-3.03,3.49c-4.29,0.23-8.58,0.36-12.86,0.7c-2.12,0.17-3.36-0.22-3.9-2.61
		c-1.55-6.91-6.17-10.72-14.88-11.06c-4.01-0.16-7.99,0.05-11.73,1.68c-3.2,1.4-6,3.17-6.08,7.25c-0.08,4,2.36,6.12,5.59,7.64
		c4.6,2.18,9.5,3.41,14.42,4.59c6.26,1.51,12.49,3.1,18.42,5.65c8.9,3.83,14.69,10.27,16.56,19.98c2.83,14.72-5.35,28.67-19.62,33.2
		c-2.33,0.74-4.72,1.4-7.13,1.73C375.65,640.03,372.11,640.16,369.63,640.36z"/>
	<path class="st0" d="M279.53,640.37c-5.86-0.21-11.67-0.58-17.25-2.51c-13.21-4.57-19.52-14.55-21.76-27.73
		c-0.34-1.98,0.39-2.7,2.37-2.85c4.58-0.36,9.15-0.88,13.72-1.44c1.71-0.21,2.61,0.39,2.92,2.03c0.06,0.3,0.14,0.6,0.23,0.89
		c4.19,13.71,18.47,19.62,31.29,12.93c1.78-0.93,3.33-2.17,4.62-3.74c4.66-5.69,3.26-12.5-3.38-15.63
		c-5.15-2.42-10.78-3.45-16.26-4.85c-6.24-1.59-12.46-3.22-18.19-6.28c-10.82-5.78-16.03-16.33-13.61-28
		c1.82-8.77,7.29-14.68,15.4-18.17c7.06-3.03,14.54-3.54,22.11-3.22c5.69,0.24,11.31,1,16.58,3.34
		c10.02,4.45,15.26,12.36,16.59,23.09c0.22,1.77-0.38,2.5-2.2,2.57c-4.9,0.18-9.8,0.41-14.7,0.76c-1.74,0.12-2.38-0.68-2.92-2.16
		c-3.35-9.12-7-11.59-16.81-11.59c-4.2,0-8.27,0.51-11.94,2.75c-5.48,3.34-5.58,9.6-0.1,12.98c3.82,2.35,8.17,3.44,12.47,4.56
		c7.11,1.86,14.31,3.38,21.13,6.23c12.37,5.17,18.43,14.5,17.9,27.64c-0.5,12.22-8.4,22.18-20.52,26.02
		C291.42,639.81,285.47,640.12,279.53,640.37z"/>
</g>
</svg>
